<svg width="112" height="112" viewBox="0 0 112 112" fill="none" xmlns="http://www.w3.org/2000/svg">
<g id="Group 6494">
<g id="Group 6493">
<path id="Vector" d="M108.867 79.3493L101.089 67.6335C100.238 68.6371 99.2855 69.4782 98.2019 70.1168L105.723 81.4432C106.136 82.0663 105.683 82.8852 104.959 82.8852C104.934 82.8852 104.91 82.8829 104.883 82.8807L69.8438 80.2327H69.8083C69.6684 80.2327 69.5352 80.295 69.4441 80.4063L47.248 107.872C47.057 108.108 46.7928 108.217 46.533 108.217C46.1311 108.217 45.738 107.959 45.6292 107.505L37.8131 74.6429C37.7464 74.3581 37.4134 74.2313 37.1736 74.3982C36.2831 75.0279 35.3128 75.582 34.278 76.0871L41.9565 108.382C42.4628 110.511 44.3458 112 46.533 112C47.9541 112 49.2842 111.364 50.1813 110.253L71.2894 84.1357L104.601 86.6525C104.719 86.6614 104.839 86.668 104.959 86.668C106.691 86.668 108.276 85.7134 109.098 84.1802C109.917 82.6493 109.828 80.7957 108.867 79.3493ZM35.9412 4.67297C35.9634 4.13669 36.4053 3.78288 36.8693 3.78288C37.0758 3.78288 37.2868 3.85186 37.4667 4.0054L64.1727 26.9163C64.2593 26.992 64.3681 27.0298 64.4791 27.0298C64.5191 27.0298 64.5612 27.0254 64.6012 27.0142L98.6971 17.7818C98.7814 17.7595 98.8636 17.7484 98.9435 17.7484C99.5742 17.7484 100.054 18.4048 99.7895 19.0346L93.359 34.3441H97.4536L103.269 20.5032C103.882 19.0457 103.727 17.3901 102.854 16.0728C101.979 14.7532 100.518 13.9655 98.9435 13.9655C98.5283 13.9655 98.1153 14.0211 97.7112 14.1302L65.3007 22.9065L39.9203 1.13264C39.0699 0.402766 37.9863 0 36.8693 0C34.338 0 32.2751 1.98268 32.1685 4.51498L30.9339 34.3441H34.7132L35.9412 4.67297ZM4.18797 58.8283L10.361 54.7094H4.16132C4.00366 54.7094 3.85711 54.6649 3.73276 54.587L2.09625 55.6796C0.619617 56.6631 -0.170882 58.3699 0.0311834 60.1345C0.231029 61.8968 1.38569 63.3811 3.04441 64.0064L13.7317 68.0362L15.6991 64.7362L4.37449 60.466C3.66837 60.2012 3.55956 59.2466 4.18797 58.8283Z" fill="#E30613"/>
<g id="Group">
<path id="Vector_2" d="M4.39291 37.2926V52.2461H8.44311V37.2926H4.39291ZM7.77696 32.7153C7.33952 32.2769 6.79772 32.0588 6.15155 32.0588C5.50538 32.0588 4.96358 32.2769 4.52614 32.7153C4.0887 33.1536 3.87109 33.6966 3.87109 34.3441C3.87109 34.9917 4.0887 35.5346 4.52614 35.973C4.96358 36.4114 5.50538 36.6294 6.15155 36.6294C6.79772 36.6294 7.33952 36.4114 7.77696 35.973C8.2144 35.5346 8.43201 34.9917 8.43201 34.3441C8.43201 33.6966 8.2144 33.1536 7.77696 32.7153Z" fill="#004291"/>
<path id="Vector_3" d="M22.561 44.518C21.7816 43.7814 20.6225 43.2629 19.0814 42.9648L18.6018 42.8668C18.4375 42.8335 18.2243 42.7934 17.9623 42.7511C17.698 42.7089 17.4849 42.671 17.3228 42.6377C17.1585 42.6065 16.9742 42.5687 16.7677 42.5264C16.5612 42.4841 16.3946 42.4352 16.2658 42.3818C16.1393 42.3283 16.0149 42.2683 15.8928 42.1993C15.7729 42.1325 15.6863 42.0502 15.633 41.9545C15.5797 41.8588 15.553 41.7542 15.553 41.6385C15.553 41.3181 15.7285 41.0778 16.0793 40.9131C16.4324 40.7507 16.8964 40.6683 17.4716 40.6683C18.8705 40.6683 20.3071 41.0844 21.7771 41.9167L23.5247 38.5944C22.3322 37.9625 21.262 37.5419 20.316 37.3349C19.3723 37.128 18.342 37.0256 17.2251 37.0256C15.4354 37.0256 13.9876 37.464 12.8818 38.3385C11.7782 39.2153 11.2075 40.3679 11.172 41.801C11.1365 43.1317 11.4984 44.1775 12.26 44.9408C13.0194 45.7018 14.2518 46.2292 15.9572 46.5207L16.5234 46.6164C16.5589 46.6253 16.6078 46.6319 16.6722 46.6386C17.134 46.7165 17.5182 46.7877 17.8291 46.8522C18.1377 46.9168 18.4064 46.9902 18.6373 47.077C18.8683 47.1615 19.037 47.2661 19.1436 47.3907C19.2502 47.5153 19.3035 47.6711 19.3035 47.8558C19.3035 48.2052 19.1347 48.4655 18.7928 48.6346C18.4508 48.806 17.9934 48.8928 17.4183 48.8928C16.7144 48.8928 16.0349 48.806 15.3776 48.6302C14.7204 48.4566 14.2119 48.2786 13.8521 48.0961C13.4946 47.9159 13.055 47.6667 12.5354 47.3551L10.5547 50.664C11.3985 51.2715 12.4088 51.7321 13.5812 52.0481C14.7537 52.3641 16.0149 52.5243 17.365 52.5243C18.0178 52.5243 18.6462 52.4665 19.2457 52.353C19.8453 52.2395 20.4226 52.0504 20.9733 51.7878C21.524 51.523 22.0014 51.1959 22.4055 50.8042C22.8119 50.4126 23.1316 49.9208 23.3714 49.3289C23.609 48.7392 23.7267 48.0761 23.7267 47.344C23.7267 46.198 23.3381 45.2545 22.561 44.518Z" fill="#004291"/>
<path id="Vector_4" d="M24.7734 37.2925V41.0309H29.0146V52.246H33.0648V41.0309H37.3082V37.2925H24.7734Z" fill="#004291"/>
<path id="Vector_5" d="M46.5891 37.2925H41.815L36.166 52.246H40.3983L41.3775 49.3933H46.9532L47.9436 52.246H52.238L46.5891 37.2925ZM42.6366 45.7728L44.1709 41.3513L45.6942 45.7728H42.6366Z" fill="#004291"/>
<path id="Vector_6" d="M63.8559 37.2925V45.6994L57.7073 37.2925H53.7637V52.246H57.8139V43.8391L63.9624 52.246H67.9061V37.2925H63.8559Z" fill="#004291"/>
<path id="Vector_7" d="M82.5831 45.9909C82.1568 45.4034 81.6083 44.9873 80.9399 44.7359C81.5439 44.431 82.0258 44.006 82.3855 43.4608C82.743 42.9156 82.9229 42.2903 82.9229 41.5872C82.9229 40.2187 82.4477 39.1617 81.4951 38.414C80.5425 37.6663 79.0903 37.2925 77.1362 37.2925H70.4414V52.246H77.5204C79.4389 52.246 80.8689 51.8722 81.8104 51.1245C82.7519 50.3768 83.2226 49.3198 83.2226 47.9513C83.2226 47.2326 83.0095 46.5806 82.5831 45.9909ZM74.4916 40.6036H77.0496C78.1665 40.6036 78.7239 41.0175 78.7239 41.8431C78.7239 42.6686 78.1621 43.0914 77.0407 43.0914H74.4916V40.6036ZM77.2961 48.9549L74.4916 48.946V46.3825H77.2961C78.4685 46.3825 79.0547 46.8098 79.0547 47.6643C79.0547 48.5187 78.4685 48.9549 77.2961 48.9549Z" fill="#004291"/>
<path id="Vector_8" d="M94.2743 37.2925V46.0287C94.2743 46.8765 94.05 47.5241 93.597 47.9669C93.1463 48.4142 92.5223 48.6344 91.7274 48.6344C90.9324 48.6344 90.3085 48.4142 89.8577 47.9669C89.4047 47.5241 89.1804 46.8765 89.1804 46.0287V37.2925H85.1191V46.1467C85.1191 48.1916 85.6876 49.7649 86.8245 50.8686C87.8481 51.861 89.2737 52.4084 91.1034 52.5063C91.2899 52.2059 91.4809 51.9011 91.6763 51.5918C92.5179 50.2566 93.3528 49.0684 94.2321 47.9513C94.9538 47.0345 95.8642 46.4671 96.9322 46.2668C97.1743 46.2223 97.423 46.1934 97.7161 46.18C97.7627 46.18 97.8071 46.1756 97.8493 46.1756H97.8515C98.0158 46.1756 98.1779 46.1912 98.3334 46.2245C98.3334 46.2001 98.3334 46.1734 98.3334 46.1467V37.2925H94.2721H94.2743Z" fill="#004291"/>
<path id="Vector_9" d="M104.816 48.5076V37.2925H100.766V52.246H112.001V48.5076H104.816Z" fill="#004291"/>
</g>
<path id="Vector_10" d="M32.0686 55.17C31.3247 54.5959 30.4565 54.32 29.5394 54.1932C28.4358 54.0396 27.3256 54.0619 26.222 54.162C24.6698 54.3022 23.1599 54.6382 21.6877 55.1522C19.596 55.8843 17.6686 56.9168 15.9721 58.3543C15.3415 58.8884 14.8241 59.5203 14.4999 60.2903C14.3445 60.6597 14.2623 61.0424 14.3112 61.4474C14.3778 62.0015 14.7775 62.5845 15.457 62.6757C15.8145 62.7224 16.1631 62.7002 16.5073 62.6134C17.149 62.451 17.6308 62.0593 17.9994 61.5208C18.1105 61.3584 18.0527 61.1959 17.8773 61.1092C17.8151 61.078 17.7463 61.0647 17.6775 61.0647C17.6331 61.0647 17.5931 61.0535 17.5753 61.009C17.5553 60.9578 17.5687 60.9133 17.6109 60.8777C17.6419 60.851 17.6753 60.8243 17.7063 60.7976C18.0749 60.5039 18.4502 60.2191 18.8388 59.9498C20.2444 58.9774 21.761 58.2319 23.3953 57.7246C24.2768 57.4509 25.1739 57.2528 26.0887 57.1304C26.7882 57.037 27.4921 56.9569 28.2004 56.9992C28.609 57.0236 29.0131 57.077 29.3995 57.2261C30.0634 57.482 30.2855 57.9827 30.0235 58.6414C30.0079 58.6792 29.9924 58.7193 29.9746 58.7571C29.8325 59.0597 29.6482 59.3379 29.435 59.5938C29.0465 60.0588 28.6001 60.4661 28.1227 60.8355C26.0443 62.4465 23.775 63.7238 21.3346 64.6962C21.2703 64.7207 21.2081 64.7585 21.1193 64.7229C21.1259 64.694 21.1259 64.6717 21.1348 64.6539C21.197 64.5538 21.2569 64.4537 21.3258 64.3558C22.5604 62.5778 23.7306 60.7576 24.8652 58.9151C24.9496 58.7793 25.0251 58.6391 25.0562 58.4789C25.1162 58.1674 25.0096 58.0161 24.6987 57.9738C24.1258 57.8959 23.5663 57.9716 23.0156 58.1296C22.4027 58.3076 21.9075 58.6392 21.5345 59.171C21.0971 59.7963 20.6352 60.4038 20.1977 61.029C18.8543 62.9516 17.5975 64.9299 16.3074 66.8881C15.0839 68.7483 13.876 70.6175 12.7546 72.5424C12.3683 73.2077 11.9885 73.8775 11.6266 74.5584C11.389 75.0012 11.2091 75.4641 11.1692 75.9737C11.1203 76.6012 11.4223 77.0507 12.0263 77.2287C12.1862 77.2754 12.3527 77.2932 12.5192 77.2999C13.1343 77.3244 13.6095 77.0952 13.9115 76.5411C14.1602 76.0849 14.4133 75.6287 14.6643 75.1748C14.6976 75.1147 14.7264 75.0502 14.7642 74.9923C14.8375 74.8788 14.9041 74.8766 14.9929 74.9768C15.0151 75.0035 15.0351 75.0324 15.0551 75.0613C15.306 75.4196 15.6235 75.7022 16.001 75.9225C16.6938 76.3252 17.4576 76.481 18.2459 76.53C18.8344 76.5656 19.4206 76.5344 20.009 76.461C20.9394 76.3453 21.852 76.1517 22.7424 75.8535C24.3834 75.3083 25.8667 74.4716 27.2145 73.3857C27.9851 72.7649 28.6934 72.084 29.2396 71.2517C29.6549 70.6175 29.9768 69.9433 30.0634 69.1823C30.1945 68.0363 29.8614 67.0705 28.9154 66.3585C28.2182 65.8355 27.4277 65.5373 26.575 65.3994C26.4862 65.386 26.3996 65.3816 26.3175 65.3171C26.3885 65.2013 26.5084 65.1746 26.6106 65.1257C27.894 64.5071 29.1042 63.7661 30.2189 62.876C31.0294 62.2284 31.771 61.5119 32.3683 60.6574C32.8968 59.9009 33.281 59.0842 33.3542 58.1518C33.4519 56.9346 33.0522 55.9266 32.0752 55.1745L32.0686 55.17ZM26.7638 68.6949C26.8504 68.7795 26.8859 68.873 26.8792 68.9931C26.8681 69.2757 26.7593 69.5183 26.5861 69.7341C25.7046 70.8267 24.6543 71.7168 23.4219 72.3888C22.5448 72.8672 21.6166 73.1988 20.6241 73.339C20.2533 73.3924 19.8802 73.4102 19.505 73.3946C19.2896 73.3946 19.0764 73.3991 18.861 73.3946C18.6567 73.3879 18.4658 73.3256 18.2992 73.2055C18.0172 73.0052 17.995 72.7048 18.2393 72.4623C18.3081 72.3933 18.3947 72.3465 18.4769 72.2976C18.5768 72.2375 18.6834 72.1819 18.7766 72.1107C18.9698 71.9638 18.9565 71.7235 18.7478 71.5944C18.6212 71.5143 18.4813 71.4832 18.3325 71.4743C17.9106 71.4453 17.5043 71.5232 17.1046 71.6389C17.0246 71.6612 16.9447 71.6812 16.8626 71.7012C16.8226 71.7101 16.7737 71.7257 16.7449 71.6879C16.7093 71.6456 16.7315 71.5944 16.756 71.5521C16.7782 71.5098 16.8026 71.4676 16.827 71.4253C17.4754 70.3906 18.1238 69.3581 18.7722 68.3233C18.7899 68.2944 18.8077 68.2632 18.8299 68.2365C18.9054 68.1475 18.9498 68.1431 19.0386 68.2143C19.072 68.241 19.0986 68.2721 19.1319 68.2989C19.3095 68.439 19.4916 68.4835 19.707 68.3656C20.0001 68.2054 20.3066 68.0786 20.6374 68.0163C21.1614 67.9161 21.6877 67.8405 22.2206 67.7937C22.738 67.747 23.2576 67.7336 23.7772 67.7514C24.2901 67.767 24.8009 67.7982 25.3049 67.905C25.8667 68.0252 26.3508 68.2966 26.7616 68.6994L26.7638 68.6949ZM100.007 63.9797C99.8605 63.6993 99.5674 63.6504 99.3298 63.8595C99.2832 63.9018 99.2388 63.9441 99.1966 63.9908C98.8058 64.3936 98.415 64.7986 98.022 65.1991C97.6245 65.6063 97.2137 66.0002 96.7518 66.334C96.3033 66.6566 95.8237 66.9148 95.293 67.0705C95.213 67.095 95.1331 67.1128 95.0487 67.1128C94.8955 67.1128 94.8333 67.0572 94.8111 66.9081C94.8045 66.8614 94.8067 66.8124 94.8111 66.7634C94.8289 66.4408 94.9577 66.1604 95.1286 65.8934C96.6852 63.4479 98.1796 60.9623 99.6141 58.4411C99.6962 58.2965 99.7762 58.1518 99.8295 57.9916C99.9782 57.5399 99.8628 57.1527 99.4853 56.8656C99.4098 56.8078 99.3254 56.7544 99.241 56.7099C98.9412 56.5541 98.6171 56.4785 98.284 56.4495C98.0508 56.4295 97.8488 56.5096 97.6867 56.6854C97.6023 56.7789 97.5379 56.8857 97.4691 56.9903C96.2034 58.9462 94.9843 60.9334 93.7941 62.9383C93.3034 63.7638 92.7549 64.5471 92.111 65.2592C91.5536 65.8778 90.9808 66.4831 90.3013 66.9726C89.7151 67.3954 89.0689 67.6602 88.3383 67.6825C87.9875 67.6936 87.8143 67.4711 87.9053 67.1306C88.0475 66.5921 88.2318 66.0692 88.4782 65.5707C89.2221 64.0509 90.0282 62.5622 90.8564 61.0847C92.584 58.0116 94.4447 55.0209 96.3655 52.0636C96.9783 51.1223 97.5956 50.1833 98.2085 49.242C98.3151 49.0796 98.4172 48.9127 98.486 48.7302C98.6881 48.1895 98.3928 47.7044 97.7977 47.7356C97.6023 47.7445 97.4113 47.7645 97.2204 47.8001C96.4832 47.938 95.9125 48.3341 95.4528 48.9171C94.5691 50.0409 93.7542 51.2158 92.9903 52.4241C91.8867 54.1731 90.8009 55.9311 89.7417 57.7068C89.6063 57.9338 89.5974 57.9382 89.3775 57.798C89.0334 57.5777 88.6559 57.5199 88.2606 57.5866C87.5323 57.709 86.8395 57.9449 86.1689 58.252C85.1608 58.7148 84.2504 59.3312 83.3755 60.0077C81.5325 61.434 80.0137 63.143 78.8968 65.2013C78.6125 65.7265 78.3394 66.2561 78.1618 66.8302C77.8909 67.698 77.8331 68.5726 78.0885 69.4537C78.2528 70.0234 78.6037 70.4128 79.1943 70.5552C79.4319 70.6131 79.6717 70.6309 79.916 70.6042C80.4089 70.5508 80.8819 70.4217 81.3282 70.2059C81.8989 69.9322 82.4274 69.5873 82.9359 69.2156C83.8241 68.5659 84.6212 67.816 85.3473 66.9904C85.4095 66.9192 85.4606 66.8347 85.5605 66.7991C85.6049 66.8769 85.5672 66.9415 85.5516 67.0038C85.5094 67.1573 85.4628 67.3109 85.425 67.4644C85.3118 67.9117 85.2385 68.3612 85.2851 68.824C85.334 69.3336 85.5672 69.7319 86.0113 69.9967C86.2044 70.1124 86.4109 70.1903 86.6263 70.2415C87.439 70.4328 88.2495 70.3995 89.0578 70.2192C90.0592 69.9922 90.9608 69.5472 91.7934 68.9553C92.0821 68.7506 92.051 68.7617 92.2842 68.9931C92.8438 69.5472 93.5143 69.8276 94.3004 69.8365C94.8267 69.8409 95.3329 69.7408 95.8237 69.5561C97.2204 69.0354 98.3639 68.1542 99.3432 67.0483C99.865 66.4586 100.163 65.7665 100.205 64.9744C100.222 64.6295 100.169 64.2957 100.007 63.9864V63.9797ZM83.9395 65.0589C83.2134 65.8222 82.4673 66.5654 81.7079 67.2953C81.568 67.431 81.417 67.5512 81.2461 67.6491C81.175 67.6891 81.0995 67.7292 81.0218 67.7559C80.8886 67.8004 80.833 67.7537 80.853 67.6179C80.8641 67.5423 80.8886 67.4688 80.9196 67.3999C81.2927 66.532 81.7301 65.6976 82.2697 64.921C83.5021 63.1475 85.0964 61.7723 86.9394 60.6752C87.2014 60.5195 87.4768 60.3904 87.7588 60.2725C87.821 60.2458 87.8809 60.2102 87.9808 60.228C87.9586 60.3415 87.8965 60.4149 87.8387 60.4905C86.6175 62.0816 85.3229 63.6081 83.9417 65.0612L83.9395 65.0589ZM56.8028 60.288C56.7828 60.1634 56.7139 60.0566 56.6296 59.9609C56.4963 59.8118 56.3298 59.7162 56.1433 59.6516C55.7658 59.5203 55.3727 59.487 54.9753 59.4936C54.1426 59.5092 53.3454 59.7139 52.5594 59.9676C50.894 60.5039 49.353 61.305 47.9074 62.2841C47.2168 62.7536 46.584 63.2943 46.0666 63.9552C45.5803 64.5761 45.2273 65.2592 45.1007 66.0469C44.9719 66.8569 45.2717 67.4956 45.9778 67.9072C46.3775 68.1409 46.8127 68.2833 47.2635 68.3634C47.9585 68.4858 48.6579 68.5859 49.3552 68.6994C49.8126 68.7728 50.2656 68.873 50.7097 69.0132C50.9251 69.0821 50.9539 69.1845 50.8118 69.3625C50.7297 69.4671 50.6275 69.5517 50.5143 69.6184C50.1568 69.832 49.7904 70.0256 49.4085 70.1925C48.5514 70.5686 47.6521 70.7844 46.7239 70.8823C46.473 70.909 46.2243 70.8912 45.9889 70.7889C45.6114 70.622 45.4094 70.3082 45.2961 69.9277C45.2295 69.7007 45.2184 69.4626 45.2117 69.2268C45.2073 69.0109 45.1962 68.7951 45.1407 68.5881C45.0607 68.2877 44.7809 68.152 44.4901 68.261C44.3524 68.3122 44.2303 68.3901 44.1281 68.4991C44.0482 68.5859 43.9705 68.6727 43.8927 68.7639C43.3976 69.3447 42.8891 69.9144 42.3228 70.4262C41.9276 70.7867 41.5057 71.1115 41.0327 71.3674C40.9484 71.4142 40.8618 71.4609 40.7641 71.4765C40.6153 71.4987 40.542 71.452 40.4998 71.3074C40.4709 71.2117 40.4776 71.1138 40.4865 71.0181C40.5242 70.573 40.633 70.1436 40.7951 69.7274C41.4569 68.0452 42.2562 66.4319 43.1911 64.8854C43.5042 64.3691 43.8372 63.8662 44.1592 63.3566C44.4012 62.9739 44.4168 62.5756 44.2036 62.1706C44.1481 62.066 44.0682 61.9948 43.9571 61.9614C43.1733 61.7211 42.4516 61.7723 41.8499 62.4042C41.7211 62.5377 41.7033 62.5377 41.5568 62.422C41.2193 62.1572 40.8307 62.0237 40.4088 61.9837C39.7915 61.9258 39.1964 62.0326 38.6079 62.2173C37.9085 62.4376 37.2645 62.7647 36.6472 63.1586C34.8531 64.3046 33.2943 65.7042 32.0575 67.4488C31.3846 68.399 30.8451 69.4204 30.5098 70.5441C30.2811 71.3118 30.1789 72.0884 30.3099 72.8873C30.4787 73.9109 31.2314 74.6207 32.2595 74.7209C32.7192 74.7654 33.1566 74.6719 33.5829 74.5184C34.2824 74.2669 34.9019 73.8753 35.4926 73.4347C36.232 72.8806 36.9048 72.2508 37.5421 71.5811C37.6021 71.5188 37.6487 71.4364 37.7419 71.4164C37.8063 71.4676 37.7886 71.5343 37.7886 71.5944C37.7886 71.7947 37.7975 71.9972 37.7864 72.1974C37.7442 72.9028 38.2949 73.9086 39.3074 74.1445C39.6494 74.2246 39.9935 74.2358 40.3377 74.1757C40.8507 74.0889 41.3192 73.8908 41.7677 73.6305C42.3406 73.2967 42.8535 72.8895 43.3376 72.44C43.513 72.2776 43.5375 72.1796 43.6796 72.5045C43.9438 73.1031 44.3946 73.4792 45.0541 73.5882C45.225 73.6171 45.3982 73.6305 45.5714 73.6416C46.3686 73.6906 47.1658 73.6728 47.9429 73.4614C48.8955 73.2032 49.8126 72.8517 50.6853 72.3888C51.4913 71.9616 52.2463 71.4609 52.8858 70.8022C53.3032 70.3705 53.6585 69.8921 53.8717 69.3247C54.1559 68.5726 54.0471 67.8805 53.5231 67.2641C53.1589 66.8369 52.6904 66.5788 52.1597 66.4297C51.2848 66.1827 50.3966 66.0135 49.4951 65.9001C49.0554 65.8444 48.6158 65.7999 48.1739 65.751C48.0828 65.7398 47.9896 65.7287 47.9607 65.6197C47.9341 65.524 47.994 65.4617 48.054 65.4038C48.2094 65.257 48.3626 65.1057 48.5225 64.961C49.5772 64.0131 50.7763 63.3099 52.0953 62.8026C52.2951 62.7247 52.4972 62.6557 52.7037 62.5912C52.8458 62.5466 52.8858 62.5889 52.848 62.7291C52.8258 62.8159 52.7903 62.9005 52.7659 62.985C52.7392 63.074 52.7303 63.1653 52.7947 63.2431C53.0878 63.6014 53.452 63.8284 53.9294 63.7594C54.529 63.6726 55.0663 63.4145 55.5682 63.0829C55.8768 62.8804 56.1632 62.649 56.3853 62.3508C56.8472 61.73 56.9116 61.0268 56.7961 60.2903L56.8028 60.288ZM40.3266 64.3535C39.5383 65.435 38.7434 66.5098 37.9085 67.5556C37.3156 68.2966 36.6273 68.9353 35.93 69.5717C35.1262 70.306 34.2913 71.0047 33.4342 71.6723C33.3853 71.7101 33.3365 71.7502 33.2832 71.7813C33.1988 71.8303 33.11 71.8392 33.0323 71.7724C32.9568 71.7057 32.9767 71.6211 33.0101 71.541C33.0878 71.363 33.1655 71.185 33.2521 71.0114C34.1159 69.269 35.2239 67.7025 36.6428 66.3674C37.5332 65.5307 38.5169 64.8297 39.6671 64.3891C39.9047 64.2979 40.1445 64.2111 40.4132 64.1622C40.4132 64.2601 40.3621 64.3046 40.3266 64.3535ZM82.9758 58.7437C82.8071 58.5991 82.6228 58.4767 82.4251 58.3721C82.0077 58.1518 81.5569 58.0561 81.0906 58.0094C80.3312 57.9338 79.5829 57.9738 78.8457 58.1719C77.8331 58.4433 76.9627 58.9663 76.1944 59.6717C76.1278 59.7317 76.0612 59.794 75.9946 59.8519C75.9724 59.8697 75.9435 59.8808 75.9191 59.863C75.8791 59.8341 75.9035 59.8007 75.9191 59.774C75.9457 59.734 75.9746 59.6939 76.0012 59.6539C76.1833 59.3579 76.2477 59.0375 76.1855 58.6948C76.1456 58.4723 76.0257 58.3699 75.7969 58.3677C75.6659 58.3677 75.5349 58.381 75.4039 58.3899C74.4913 58.4567 73.7474 58.8439 73.159 59.5448C72.8503 59.912 72.5928 60.3147 72.3441 60.7242C71.3049 62.4398 70.2523 64.1444 69.1687 65.8311C68.7668 66.4564 68.3871 67.095 67.9364 67.6847C67.4456 68.3256 66.8705 68.8685 66.1466 69.2424C65.949 69.3447 65.7514 69.4471 65.5293 69.4849C65.1185 69.5561 64.9254 69.3514 65.0253 68.9508C65.0897 68.6949 65.1629 68.4435 65.2384 68.1898C65.627 66.8858 66.1999 65.6642 66.8439 64.4715C67.3923 63.459 67.9808 62.4688 68.6292 61.5164C68.7757 61.3027 68.8934 61.078 68.9334 60.8176C69.0044 60.3748 68.8046 60.0366 68.3827 59.8942C68.0873 59.7918 67.7787 59.7651 67.4789 59.8274C67.0904 59.9075 66.6862 59.981 66.4397 60.3593C66.3576 60.4839 66.2377 60.4839 66.1133 60.3971C66.0845 60.3771 66.06 60.3548 66.0334 60.3303C65.8358 60.1523 65.6026 60.0588 65.3428 60.021C64.7877 59.9409 64.237 59.9721 63.6908 60.09C62.696 60.3036 61.7967 60.7398 60.9507 61.2961C59.7915 62.0593 58.7746 62.9872 57.822 63.9908C57.138 64.714 56.5163 65.4839 56.0234 66.3518C55.4438 67.3665 55.0197 68.439 54.8731 69.6051C54.8043 70.1458 54.8021 70.6887 54.9819 71.2117C55.244 71.9682 55.7303 72.5001 56.5363 72.6825C56.9227 72.7716 57.309 72.7248 57.6887 72.6291C58.4415 72.4444 59.1032 72.0706 59.7338 71.6367C60.5998 71.0426 61.3859 70.3527 62.1053 69.585C62.1742 69.5116 62.2341 69.4204 62.3629 69.3825C62.4006 69.5027 62.3762 69.6073 62.3673 69.7074C62.3318 70.1792 62.3807 70.6353 62.5805 71.0693C62.8114 71.5699 63.1689 71.926 63.7174 72.0528C64.1526 72.1552 64.5967 72.1618 65.0386 72.0906C65.6759 71.9883 66.2399 71.719 66.7506 71.3296C66.9527 71.1761 67.1525 71.1405 67.3923 71.2206C67.6877 71.3185 67.9919 71.3941 68.3027 71.4275C69.1465 71.521 69.7061 71.3118 70.0703 70.5486C70.0858 70.5174 70.1013 70.4862 70.1191 70.4573C70.5743 69.6073 71.034 68.7595 71.5269 67.9295C72.2708 66.6744 73.0613 65.4528 73.9939 64.3291C74.8843 63.2543 75.8724 62.2885 77.0537 61.5342C77.5978 61.187 78.1662 60.8822 78.7791 60.673C79.3631 60.475 79.9537 60.4438 80.5155 60.7331C80.933 60.9489 80.8997 60.9289 81.2771 60.6819C81.93 60.2524 82.5029 59.7317 83.0136 59.1398C83.1601 58.9685 83.1535 58.8928 82.9803 58.7415L82.9758 58.7437ZM64.9786 62.2529C64.9587 62.2974 64.9342 62.3397 64.9054 62.3775C64.0638 63.4523 63.2822 64.576 62.4006 65.6219C61.568 66.6099 60.622 67.4889 59.645 68.3322C59.1942 68.7216 58.7346 69.1022 58.2683 69.4738C58.1217 69.5895 57.9707 69.703 57.802 69.7853C57.671 69.8498 57.5777 69.7853 57.5955 69.6073C57.6377 69.4849 57.6843 69.3247 57.7442 69.1711C57.9685 68.5993 58.2772 68.0741 58.6014 67.5556C59.3097 66.4208 60.1335 65.3794 61.115 64.4648C62.1497 63.499 63.3044 62.7247 64.6367 62.2307C64.7277 62.1973 64.8143 62.1528 64.9143 62.1572C64.9786 62.1595 65.0053 62.1928 64.9786 62.2529ZM46.6795 74.1C46.0755 73.9999 45.4671 73.9865 44.8587 74.0533C44.7254 74.0689 44.6233 74.1223 44.55 74.2335C44.1148 74.9011 43.6774 75.5664 43.2421 76.2362C43.1311 76.4076 43.0667 76.5967 43.0734 76.8059C43.08 77.064 43.2222 77.2354 43.4775 77.2821C43.6019 77.3043 43.7262 77.2977 43.8816 77.2888C44.0371 77.2888 44.2236 77.2665 44.4079 77.2376C45.1518 77.1152 45.7913 76.8014 46.2531 76.185C46.5685 75.7623 46.8438 75.3128 47.0681 74.8343C47.239 74.4694 47.0814 74.1668 46.6817 74.1H46.6795Z" fill="#004291"/>
</g>
</g>
</svg>
