<svg width="461" height="462" viewBox="0 0 461 462" fill="none" xmlns="http://www.w3.org/2000/svg">
<path d="M440.818 176.403H434.686V157.06C434.686 146.263 426.064 137.497 415.345 137.285L426.707 110.227C432.238 97.0573 430.831 82.0934 422.949 70.1957C415.068 58.2899 401.86 51.1789 387.627 51.1789C383.886 51.1789 380.153 51.6764 376.526 52.6549L270.681 81.3351L187.837 10.226C180.151 3.62884 170.359 0 160.266 0C137.428 0 118.803 17.9077 117.86 40.7817L113.956 135.083H80.2357C74.4937 124.27 63.148 116.906 50.0862 116.906C31.2336 116.906 15.9433 132.229 15.9433 151.139V210.465C4.55697 219.566 -1.39648 233.812 0.278941 248.515C2.09263 264.449 12.5193 277.855 27.4924 283.507L44.4581 289.908C38.9113 315.922 47.2477 331.309 73.8024 332.777C93.6554 333.585 111.874 329.956 128.319 321.548L129.051 321.826L154.361 428.334C158.94 447.571 175.914 461.01 195.653 461.01C208.495 461.01 220.508 455.261 228.6 445.239L297.602 359.818L406.439 368.055C407.488 368.128 408.57 368.177 409.644 368.177C425.308 368.177 439.631 359.574 447.032 345.719C454.425 331.872 453.636 315.147 444.95 302.067L417.11 260.111C417.167 256.482 416.988 253.196 413.45 248.368C414.515 246.305 415.296 244.242 414.865 242.13H440.81C451.96 242.13 460.996 233.07 460.996 221.89V196.643C460.996 185.463 451.96 176.403 440.81 176.403H440.818Z" fill="#004291"/>
<path d="M423.974 316.068L395.484 273.134C392.369 276.812 388.88 279.894 384.911 282.234L412.458 323.742C413.97 326.025 412.311 329.026 409.66 329.026C409.57 329.026 409.481 329.018 409.383 329.01L281.042 319.306H280.912C280.4 319.306 279.912 319.534 279.578 319.942L198.28 420.595C197.58 421.46 196.612 421.859 195.661 421.859C194.189 421.859 192.749 420.913 192.351 419.25L163.722 298.821C163.478 297.777 162.258 297.312 161.38 297.924C158.118 300.232 154.564 302.262 150.774 304.114L178.898 422.463C180.753 430.267 187.65 435.722 195.661 435.722C200.866 435.722 205.738 433.39 209.024 429.321L286.337 333.609L408.35 342.832C408.781 342.865 409.221 342.889 409.66 342.889C416.004 342.889 421.811 339.391 424.82 333.772C427.821 328.162 427.496 321.369 423.974 316.068ZM156.866 42.4045C156.947 40.4392 158.566 39.1426 160.265 39.1426C161.022 39.1426 161.795 39.3954 162.453 39.9581L260.27 123.919C260.588 124.196 260.986 124.335 261.393 124.335C261.539 124.335 261.694 124.319 261.84 124.278L386.724 90.4439C387.033 90.3623 387.334 90.3216 387.627 90.3216C389.937 90.3216 391.694 92.7272 390.726 95.035L367.172 151.139H382.17L403.47 100.417C405.715 95.0757 405.146 89.0086 401.95 84.1811C398.745 79.3453 393.393 76.4586 387.627 76.4586C386.106 76.4586 384.593 76.6624 383.113 77.062L264.402 109.224L171.44 29.4303C168.325 26.7556 164.356 25.2796 160.265 25.2796C150.994 25.2796 143.438 32.5454 143.048 41.8255L138.526 151.139H152.368L156.866 42.4045ZM40.5621 240.866L63.1722 225.771H40.4645C39.887 225.771 39.3503 225.608 38.8948 225.323L32.9007 229.327C27.4922 232.931 24.5968 239.186 25.3369 245.652C26.0689 252.111 30.2981 257.55 36.3735 259.842L75.5183 274.61L82.7242 262.516L41.2453 246.867C38.6589 245.897 38.2604 242.399 40.5621 240.866Z" fill="#E30613"/>
<path d="M41.3117 161.944V216.744H56.1465V161.944H41.3117ZM53.7066 145.17C52.1043 143.564 50.1199 142.765 47.7531 142.765C45.3864 142.765 43.4019 143.564 41.7997 145.17C40.1974 146.777 39.4004 148.766 39.4004 151.139C39.4004 153.512 40.1974 155.502 41.7997 157.109C43.4019 158.715 45.3864 159.514 47.7531 159.514C50.1199 159.514 52.1043 158.715 53.7066 157.109C55.3088 155.502 56.1058 153.512 56.1058 151.139C56.1058 148.766 55.3088 146.777 53.7066 145.17Z" fill="white"/>
<path d="M107.857 188.423C105.002 185.724 100.756 183.823 95.1121 182.731L93.3553 182.372C92.7535 182.25 91.9727 182.103 91.013 181.948C90.0451 181.793 89.2643 181.654 88.6706 181.532C88.0688 181.418 87.3937 181.279 86.6373 181.124C85.881 180.969 85.271 180.79 84.7993 180.594C84.3357 180.398 83.8802 180.178 83.4329 179.926C82.9937 179.681 82.6765 179.379 82.4813 179.028C82.2861 178.678 82.1885 178.295 82.1885 177.871C82.1885 176.696 82.831 175.816 84.1161 175.212C85.4092 174.617 87.1091 174.315 89.2156 174.315C94.3394 174.315 99.6016 175.84 104.986 178.89L111.386 166.715C107.019 164.399 103.099 162.858 99.6341 162.099C96.1775 161.341 92.4037 160.966 88.3128 160.966C81.7575 160.966 76.4547 162.572 72.4044 165.777C68.3622 168.99 66.272 173.214 66.1419 178.466C66.0117 183.342 67.3374 187.175 70.1271 189.972C72.9086 192.761 77.4225 194.694 83.6688 195.762L85.7427 196.113C85.8728 196.145 86.0518 196.17 86.2876 196.194C87.9793 196.48 89.3864 196.741 90.525 196.977C91.6555 197.213 92.6396 197.483 93.4854 197.801C94.3313 198.111 94.9494 198.494 95.3398 198.95C95.7302 199.407 95.9254 199.978 95.9254 200.655C95.9254 201.935 95.3073 202.889 94.0548 203.509C92.8023 204.137 91.1268 204.455 89.0204 204.455C86.4422 204.455 83.9534 204.137 81.546 203.493C79.1386 202.857 77.2761 202.204 75.9586 201.535C74.6491 200.875 73.0388 199.962 71.1356 198.82L63.8809 210.946C66.9714 213.172 70.672 214.86 74.9663 216.018C79.2606 217.176 83.8802 217.763 88.8252 217.763C91.2163 217.763 93.518 217.551 95.7139 217.135C97.9099 216.72 100.024 216.026 102.041 215.064C104.059 214.094 105.807 212.895 107.287 211.46C108.776 210.025 109.947 208.222 110.825 206.053C111.696 203.892 112.127 201.462 112.127 198.779C112.127 194.58 110.703 191.122 107.857 188.423Z" fill="white"/>
<path d="M115.957 161.944V175.644H131.491V216.744H146.326V175.644H161.869V161.944H115.957Z" fill="white"/>
<path d="M195.864 161.944H178.378L157.688 216.744H173.189L176.776 206.29H197.198L200.826 216.744H216.555L195.864 161.944ZM181.387 193.022L187.007 176.819L192.587 193.022H181.387Z" fill="white"/>
<path d="M259.11 161.944V192.753L236.589 161.944H222.145V216.744H236.979V185.936L259.5 216.744H273.944V161.944H259.11Z" fill="white"/>
<path d="M327.702 193.821C326.141 191.668 324.132 190.143 321.684 189.222C323.896 188.105 325.661 186.547 326.979 184.549C328.288 182.551 328.947 180.26 328.947 177.683C328.947 172.668 327.206 168.794 323.717 166.054C320.228 163.314 314.909 161.944 307.752 161.944H283.23V216.744H309.159C316.186 216.744 321.424 215.374 324.872 212.634C328.321 209.894 330.045 206.021 330.045 201.005C330.045 198.371 329.264 195.982 327.702 193.821ZM298.065 174.079H307.435C311.526 174.079 313.567 175.595 313.567 178.621C313.567 181.646 311.509 183.196 307.402 183.196H298.065V174.079ZM308.337 204.683L298.065 204.651V195.256H308.337C312.632 195.256 314.779 196.822 314.779 199.953C314.779 203.085 312.632 204.683 308.337 204.683Z" fill="white"/>
<path d="M370.523 161.944V193.96C370.523 197.067 369.702 199.44 368.043 201.063C366.391 202.702 364.106 203.509 361.194 203.509C358.283 203.509 355.997 202.702 354.346 201.063C352.687 199.44 351.866 197.067 351.866 193.96V161.944H336.99V194.392C336.99 201.886 339.072 207.652 343.236 211.696C346.986 215.333 352.207 217.339 358.909 217.698C359.592 216.597 360.292 215.48 361.007 214.347C364.09 209.454 367.148 205.099 370.369 201.005C373.012 197.646 376.346 195.566 380.258 194.832C381.145 194.669 382.056 194.563 383.129 194.514C383.3 194.514 383.463 194.498 383.617 194.498H383.626C384.227 194.498 384.821 194.555 385.39 194.677C385.39 194.588 385.39 194.49 385.39 194.392V161.944H370.515H370.523Z" fill="white"/>
<path d="M409.132 203.044V161.944H394.297V216.744H435.451V203.044H409.132Z" fill="white"/>
<path d="M142.683 227.459C139.958 225.355 136.778 224.344 133.419 223.879C129.377 223.317 125.311 223.398 121.268 223.765C115.583 224.279 110.053 225.51 104.661 227.394C96.9992 230.077 89.9397 233.861 83.7259 239.129C81.4161 241.086 79.5211 243.402 78.3337 246.223C77.7644 247.577 77.4634 248.98 77.6424 250.464C77.8864 252.494 79.3503 254.631 81.8391 254.965C83.1485 255.136 84.4254 255.055 85.686 254.737C88.0365 254.142 89.8014 252.706 91.1515 250.733C91.5581 250.138 91.3467 249.542 90.7042 249.224C90.4764 249.11 90.2243 249.061 89.9722 249.061C89.8095 249.061 89.6631 249.02 89.5981 248.857C89.5249 248.67 89.5737 248.507 89.7282 248.376C89.8421 248.278 89.9641 248.18 90.0779 248.083C91.428 247.006 92.8025 245.962 94.2258 244.976C99.3741 241.412 104.929 238.68 110.915 236.821C114.144 235.818 117.43 235.092 120.78 234.644C123.342 234.301 125.921 234.008 128.515 234.162C130.012 234.252 131.492 234.448 132.907 234.994C135.339 235.932 136.152 237.767 135.192 240.181C135.135 240.319 135.079 240.466 135.013 240.605C134.493 241.714 133.818 242.733 133.037 243.671C131.614 245.375 129.979 246.868 128.23 248.221C120.618 254.125 112.306 258.806 103.367 262.37C103.132 262.459 102.904 262.598 102.579 262.467C102.603 262.361 102.603 262.28 102.635 262.215C102.863 261.848 103.083 261.481 103.335 261.122C107.857 254.606 112.143 247.936 116.299 241.184C116.608 240.686 116.885 240.173 116.999 239.585C117.218 238.444 116.828 237.889 115.689 237.734C113.591 237.449 111.541 237.726 109.524 238.305C107.279 238.957 105.466 240.173 104.099 242.121C102.497 244.413 100.806 246.639 99.2033 248.931C94.2827 255.976 89.6794 263.226 84.954 270.402C80.4727 277.219 76.0483 284.069 71.941 291.123C70.5259 293.561 69.1351 296.016 67.8094 298.511C66.9392 300.134 66.2804 301.83 66.134 303.698C65.9551 305.997 67.0612 307.645 69.2734 308.297C69.859 308.468 70.4689 308.533 71.0789 308.558C73.3318 308.648 75.0723 307.808 76.1784 305.777C77.0893 304.105 78.0165 302.434 78.9355 300.77C79.0575 300.55 79.1633 300.313 79.3015 300.101C79.5699 299.686 79.8139 299.677 80.1392 300.044C80.2206 300.142 80.2938 300.248 80.367 300.354C81.286 301.667 82.449 302.703 83.8317 303.51C86.3692 304.986 89.167 305.557 92.0543 305.736C94.2095 305.867 96.3567 305.753 98.512 305.484C101.92 305.06 105.262 304.35 108.524 303.257C114.534 301.259 119.967 298.193 124.904 294.214C127.726 291.939 130.321 289.443 132.321 286.393C133.842 284.069 135.022 281.598 135.339 278.81C135.819 274.61 134.599 271.071 131.134 268.461C128.58 266.545 125.685 265.452 122.562 264.947C122.236 264.898 121.919 264.881 121.618 264.645C121.878 264.221 122.318 264.123 122.692 263.943C127.393 261.676 131.825 258.961 135.908 255.699C138.877 253.326 141.593 250.7 143.781 247.569C145.717 244.796 147.124 241.803 147.392 238.387C147.75 233.926 146.286 230.232 142.707 227.476L142.683 227.459ZM123.245 277.024C123.562 277.334 123.692 277.676 123.668 278.116C123.627 279.152 123.229 280.041 122.594 280.832C119.365 284.836 115.518 288.098 111.004 290.56C107.792 292.314 104.392 293.529 100.757 294.043C99.3985 294.238 98.0321 294.303 96.6576 294.246C95.8687 294.246 95.0879 294.263 94.299 294.246C93.5508 294.222 92.8513 293.994 92.2413 293.553C91.2084 292.819 91.1271 291.718 92.0217 290.83C92.2739 290.577 92.591 290.406 92.892 290.226C93.258 290.006 93.6484 289.802 93.9899 289.541C94.6975 289.003 94.6487 288.122 93.8842 287.649C93.4206 287.356 92.9082 287.242 92.3633 287.209C90.818 287.103 89.3297 287.388 87.8657 287.812C87.5729 287.894 87.2801 287.967 86.9792 288.041C86.8328 288.073 86.6539 288.13 86.5481 287.992C86.418 287.837 86.4993 287.649 86.5888 287.494C86.6701 287.339 86.7596 287.184 86.8491 287.029C89.2239 283.238 91.5988 279.454 93.9737 275.662C94.0387 275.556 94.1038 275.442 94.1851 275.344C94.4617 275.018 94.6243 275.001 94.9497 275.262C95.0717 275.36 95.1693 275.474 95.2913 275.572C95.9419 276.086 96.6088 276.249 97.3977 275.817C98.4713 275.23 99.5937 274.765 100.806 274.536C102.725 274.169 104.652 273.892 106.604 273.721C108.499 273.55 110.403 273.501 112.306 273.566C114.185 273.623 116.055 273.737 117.901 274.129C119.959 274.569 121.732 275.564 123.237 277.04L123.245 277.024ZM391.524 259.744C390.987 258.716 389.914 258.537 389.044 259.303C388.873 259.458 388.71 259.613 388.556 259.785C387.124 261.261 385.693 262.745 384.253 264.213C382.797 265.705 381.293 267.148 379.601 268.371C377.958 269.554 376.201 270.5 374.258 271.071C373.965 271.16 373.672 271.226 373.363 271.226C372.802 271.226 372.574 271.022 372.493 270.475C372.468 270.304 372.476 270.125 372.493 269.945C372.558 268.763 373.029 267.735 373.656 266.757C379.357 257.795 384.831 248.686 390.085 239.447C390.386 238.917 390.678 238.387 390.874 237.799C391.418 236.144 390.996 234.725 389.613 233.673C389.336 233.461 389.027 233.265 388.718 233.102C387.62 232.532 386.433 232.254 385.213 232.148C384.359 232.075 383.619 232.368 383.025 233.013C382.716 233.355 382.48 233.747 382.228 234.13C377.592 241.298 373.127 248.58 368.768 255.927C366.97 258.953 364.961 261.823 362.603 264.433C360.561 266.7 358.463 268.918 355.974 270.712C353.827 272.261 351.46 273.232 348.785 273.313C347.5 273.354 346.865 272.539 347.199 271.291C347.719 269.317 348.394 267.401 349.297 265.574C352.022 260.005 354.974 254.549 358.008 249.135C364.335 237.873 371.151 226.913 378.186 216.075C380.431 212.626 382.692 209.185 384.936 205.735C385.327 205.14 385.701 204.528 385.953 203.86C386.693 201.878 385.611 200.1 383.432 200.214C382.716 200.247 382.017 200.32 381.317 200.451C378.617 200.957 376.527 202.408 374.843 204.545C371.606 208.663 368.621 212.968 365.823 217.396C361.781 223.806 357.804 230.248 353.925 236.756C353.429 237.587 353.396 237.604 352.591 237.09C351.33 236.283 349.948 236.071 348.5 236.315C345.832 236.764 343.295 237.628 340.839 238.754C337.146 240.45 333.811 242.709 330.607 245.188C323.857 250.415 318.293 256.678 314.203 264.221C313.161 266.145 312.161 268.086 311.51 270.19C310.518 273.37 310.307 276.575 311.242 279.804C311.844 281.892 313.129 283.319 315.292 283.841C316.163 284.053 317.041 284.118 317.936 284.02C319.741 283.825 321.474 283.352 323.108 282.561C325.199 281.558 327.134 280.294 328.997 278.932C332.25 276.551 335.17 273.803 337.829 270.777C338.057 270.516 338.244 270.206 338.61 270.076C338.773 270.361 338.634 270.598 338.578 270.826C338.423 271.389 338.252 271.951 338.114 272.514C337.699 274.153 337.431 275.8 337.602 277.497C337.78 279.364 338.634 280.824 340.261 281.794C340.969 282.218 341.725 282.504 342.514 282.691C345.491 283.392 348.459 283.27 351.42 282.61C355.088 281.778 358.39 280.147 361.44 277.978C362.497 277.228 362.383 277.268 363.237 278.116C365.287 280.147 367.743 281.174 370.622 281.207C372.55 281.223 374.404 280.856 376.201 280.18C381.317 278.271 385.506 275.042 389.092 270.989C391.004 268.828 392.093 266.292 392.248 263.389C392.313 262.125 392.118 260.902 391.524 259.768V259.744ZM332.665 263.699C330.005 266.496 327.272 269.22 324.491 271.894C323.979 272.392 323.426 272.832 322.799 273.191C322.539 273.338 322.262 273.484 321.978 273.582C321.49 273.745 321.286 273.574 321.36 273.077C321.4 272.799 321.49 272.53 321.604 272.278C322.97 269.097 324.572 266.039 326.549 263.193C331.062 256.694 336.902 251.654 343.653 247.634C344.612 247.063 345.621 246.59 346.654 246.158C346.881 246.06 347.101 245.93 347.467 245.995C347.386 246.411 347.158 246.68 346.946 246.957C342.473 252.788 337.732 258.382 332.673 263.707L332.665 263.699ZM233.278 246.215C233.205 245.758 232.953 245.367 232.644 245.016C232.156 244.47 231.546 244.119 230.862 243.883C229.48 243.402 228.04 243.279 226.584 243.304C223.534 243.361 220.615 244.111 217.735 245.041C211.636 247.006 205.991 249.942 200.697 253.53C198.167 255.251 195.849 257.232 193.954 259.654C192.173 261.929 190.88 264.433 190.416 267.32C189.945 270.288 191.043 272.628 193.629 274.137C195.093 274.993 196.687 275.515 198.338 275.809C200.884 276.257 203.446 276.624 205.999 277.04C207.675 277.309 209.334 277.676 210.961 278.19C211.75 278.443 211.855 278.818 211.335 279.47C211.034 279.853 210.66 280.163 210.245 280.408C208.935 281.191 207.593 281.9 206.195 282.512C203.055 283.89 199.761 284.681 196.362 285.04C195.443 285.138 194.532 285.072 193.67 284.697C192.287 284.086 191.547 282.936 191.132 281.541C190.888 280.71 190.847 279.837 190.823 278.973C190.807 278.182 190.766 277.391 190.563 276.632C190.27 275.531 189.245 275.034 188.18 275.433C187.675 275.621 187.228 275.906 186.854 276.306C186.561 276.624 186.277 276.942 185.992 277.276C184.178 279.405 182.316 281.492 180.242 283.368C178.794 284.689 177.249 285.88 175.516 286.817C175.207 286.989 174.89 287.16 174.532 287.217C173.987 287.299 173.719 287.127 173.564 286.597C173.459 286.247 173.483 285.888 173.516 285.537C173.654 283.906 174.052 282.332 174.646 280.807C177.07 274.642 179.998 268.73 183.422 263.063C184.569 261.171 185.789 259.328 186.968 257.46C187.854 256.058 187.911 254.598 187.131 253.114C186.927 252.731 186.634 252.47 186.228 252.347C183.357 251.467 180.713 251.654 178.509 253.97C178.038 254.46 177.973 254.46 177.436 254.036C176.2 253.065 174.776 252.576 173.231 252.429C170.97 252.217 168.79 252.608 166.635 253.285C164.073 254.093 161.715 255.291 159.453 256.735C152.882 260.934 147.172 266.064 142.642 272.457C140.178 275.939 138.202 279.682 136.974 283.8C136.136 286.614 135.762 289.46 136.242 292.387C136.86 296.138 139.617 298.74 143.382 299.107C145.066 299.27 146.668 298.927 148.23 298.365C150.792 297.443 153.061 296.008 155.224 294.393C157.933 292.363 160.397 290.055 162.731 287.6C162.951 287.372 163.122 287.07 163.463 286.997C163.699 287.184 163.634 287.429 163.634 287.649C163.634 288.383 163.666 289.125 163.626 289.859C163.471 292.444 165.488 296.13 169.197 296.995C170.449 297.288 171.71 297.329 172.971 297.109C174.85 296.791 176.566 296.065 178.208 295.111C180.307 293.888 182.186 292.395 183.959 290.748C184.601 290.153 184.691 289.794 185.211 290.984C186.179 293.178 187.83 294.556 190.246 294.956C190.872 295.062 191.506 295.111 192.141 295.152C195.06 295.331 197.98 295.266 200.827 294.491C204.316 293.545 207.675 292.257 210.871 290.56C213.823 288.995 216.589 287.16 218.931 284.746C220.46 283.164 221.761 281.411 222.542 279.331C223.583 276.575 223.185 274.039 221.265 271.78C219.931 270.214 218.215 269.269 216.272 268.722C213.067 267.817 209.814 267.197 206.512 266.781C204.901 266.577 203.291 266.414 201.673 266.235C201.339 266.194 200.998 266.153 200.892 265.754C200.794 265.403 201.014 265.175 201.233 264.963C201.803 264.425 202.364 263.87 202.949 263.34C206.813 259.866 211.205 257.289 216.036 255.43C216.768 255.145 217.508 254.892 218.264 254.655C218.785 254.492 218.931 254.647 218.793 255.161C218.711 255.479 218.581 255.789 218.492 256.099C218.394 256.425 218.362 256.759 218.598 257.045C219.671 258.358 221.005 259.189 222.754 258.936C224.95 258.618 226.918 257.673 228.756 256.457C229.886 255.715 230.936 254.867 231.749 253.775C233.441 251.499 233.676 248.923 233.254 246.223L233.278 246.215ZM172.93 261.114C170.043 265.077 167.131 269.016 164.073 272.848C161.902 275.564 159.38 277.904 156.826 280.237C153.882 282.928 150.824 285.488 147.685 287.935C147.506 288.073 147.327 288.22 147.132 288.334C146.823 288.514 146.497 288.546 146.213 288.302C145.936 288.057 146.009 287.747 146.131 287.454C146.416 286.801 146.701 286.149 147.018 285.513C150.182 279.128 154.24 273.387 159.437 268.494C162.699 265.428 166.302 262.859 170.515 261.244C171.385 260.91 172.263 260.592 173.247 260.412C173.247 260.771 173.06 260.934 172.93 261.114ZM329.143 240.556C328.525 240.026 327.85 239.577 327.126 239.194C325.597 238.387 323.946 238.036 322.238 237.865C319.457 237.587 316.716 237.734 314.015 238.46C310.307 239.455 307.119 241.371 304.305 243.956C304.061 244.176 303.817 244.405 303.573 244.617C303.491 244.682 303.385 244.723 303.296 244.658C303.15 244.552 303.239 244.429 303.296 244.331C303.394 244.185 303.499 244.038 303.597 243.891C304.264 242.806 304.5 241.632 304.272 240.376C304.126 239.561 303.686 239.186 302.849 239.178C302.369 239.178 301.889 239.227 301.409 239.259C298.066 239.504 295.342 240.923 293.187 243.491C292.056 244.837 291.113 246.313 290.202 247.813C286.395 254.101 282.54 260.347 278.571 266.529C277.099 268.82 275.708 271.16 274.057 273.321C272.26 275.67 270.154 277.66 267.502 279.03C266.778 279.405 266.054 279.78 265.241 279.919C263.736 280.18 263.029 279.429 263.395 277.961C263.631 277.024 263.899 276.102 264.176 275.173C265.599 270.394 267.697 265.917 270.056 261.546C272.065 257.836 274.22 254.207 276.595 250.717C277.132 249.934 277.563 249.11 277.709 248.156C277.969 246.533 277.237 245.294 275.692 244.772C274.61 244.397 273.48 244.299 272.382 244.527C270.959 244.821 269.478 245.09 268.576 246.476C268.275 246.933 267.836 246.933 267.38 246.615C267.274 246.541 267.185 246.46 267.087 246.37C266.363 245.718 265.509 245.375 264.558 245.237C262.525 244.943 260.508 245.057 258.507 245.489C254.863 246.272 251.569 247.871 248.471 249.909C244.225 252.706 240.5 256.107 237.011 259.785C234.506 262.435 232.229 265.256 230.423 268.437C228.3 272.155 226.747 276.086 226.21 280.359C225.958 282.34 225.95 284.33 226.609 286.247C227.568 289.019 229.35 290.968 232.302 291.637C233.717 291.963 235.132 291.792 236.523 291.441C239.28 290.764 241.704 289.394 244.014 287.804C247.186 285.627 250.065 283.099 252.7 280.286C252.952 280.016 253.172 279.682 253.643 279.543C253.782 279.984 253.692 280.367 253.66 280.734C253.529 282.463 253.708 284.135 254.44 285.725C255.286 287.56 256.596 288.864 258.604 289.329C260.199 289.704 261.825 289.729 263.444 289.468C265.778 289.093 267.844 288.106 269.714 286.679C270.454 286.116 271.186 285.986 272.065 286.279C273.147 286.638 274.261 286.915 275.399 287.038C278.49 287.38 280.54 286.614 281.873 283.817C281.93 283.702 281.987 283.588 282.052 283.482C283.72 280.367 285.403 277.26 287.209 274.218C289.933 269.619 292.829 265.142 296.245 261.024C299.506 257.085 303.125 253.546 307.452 250.782C309.445 249.51 311.527 248.392 313.771 247.626C315.91 246.9 318.074 246.786 320.132 247.846C321.661 248.637 321.539 248.564 322.921 247.659C325.312 246.085 327.411 244.176 329.281 242.007C329.818 241.379 329.794 241.102 329.159 240.548L329.143 240.556ZM263.224 253.416C263.151 253.579 263.061 253.734 262.956 253.872C259.873 257.811 257.01 261.929 253.782 265.762C250.732 269.383 247.267 272.604 243.688 275.694C242.037 277.121 240.354 278.516 238.646 279.878C238.109 280.302 237.556 280.718 236.938 281.019C236.458 281.256 236.116 281.019 236.181 280.367C236.336 279.919 236.507 279.331 236.726 278.769C237.548 276.673 238.678 274.748 239.866 272.848C242.46 268.69 245.478 264.873 249.072 261.522C252.862 257.982 257.092 255.145 261.972 253.334C262.305 253.212 262.622 253.049 262.988 253.065C263.224 253.073 263.322 253.196 263.224 253.416ZM196.191 296.831C193.979 296.464 191.75 296.416 189.522 296.66C189.034 296.717 188.66 296.913 188.391 297.321C186.797 299.767 185.195 302.205 183.601 304.66C183.194 305.288 182.958 305.981 182.983 306.748C183.007 307.694 183.528 308.321 184.463 308.493C184.918 308.574 185.374 308.55 185.943 308.517C186.512 308.517 187.196 308.436 187.871 308.33C190.595 307.881 192.938 306.731 194.629 304.472C195.784 302.923 196.793 301.276 197.614 299.522C198.24 298.185 197.663 297.076 196.199 296.831H196.191Z" fill="white"/>
</svg>
