<svg width="174" height="52" viewBox="0 0 174 52" fill="none" xmlns="http://www.w3.org/2000/svg">
<g id="istanbul basardi.com">
<path id="Vector" d="M167.886 36.2551C171.306 36.2551 173.721 38.6101 173.721 41.9701V51.0001H170.571V43.0051C170.571 40.5901 169.326 39.2401 167.226 39.2401C165.201 39.2401 163.506 40.5751 163.506 43.0351V51.0001H160.356V43.0051C160.356 40.5901 159.111 39.2401 157.011 39.2401C154.986 39.2401 153.291 40.5751 153.291 43.0351V51.0001H150.141V36.6301H153.261V38.3851C154.416 36.6901 156.201 36.2551 157.671 36.2551C159.861 36.2551 161.646 37.2301 162.636 38.8201C163.881 36.7651 166.101 36.2551 167.886 36.2551Z" fill="#004291"/>
<path id="Vector_2" d="M138.522 36.2551C142.962 36.2551 146.262 39.5101 146.262 43.8151C146.262 48.1201 142.962 51.3751 138.522 51.3751C134.082 51.3751 130.797 48.1201 130.797 43.8151C130.797 39.5101 134.082 36.2551 138.522 36.2551ZM138.522 39.2101C135.957 39.2101 134.022 41.1001 134.022 43.8151C134.022 46.5301 135.957 48.4201 138.522 48.4201C141.087 48.4201 143.037 46.5301 143.037 43.8151C143.037 41.1001 141.087 39.2101 138.522 39.2101Z" fill="#004291"/>
<path id="Vector_3" d="M123.24 36.2551C125.385 36.2551 127.335 37.0351 128.61 38.5501L126.6 40.6951C125.595 39.7501 124.53 39.2101 123.15 39.2101C120.735 39.2101 118.905 41.1001 118.905 43.8151C118.905 46.5301 120.735 48.4201 123.15 48.4201C124.53 48.4201 125.76 47.7751 126.675 46.9201L128.61 49.0801C127.305 50.5951 125.385 51.3751 123.24 51.3751C118.665 51.3751 115.68 48.1201 115.68 43.8151C115.68 39.5101 118.665 36.2551 123.24 36.2551Z" fill="#004291"/>
<path id="Vector_4" d="M110.436 46.125C111.831 46.125 113.046 47.325 113.046 48.735C113.046 50.145 111.831 51.375 110.436 51.375C109.041 51.375 107.811 50.145 107.811 48.735C107.811 47.325 109.041 46.125 110.436 46.125Z" fill="#004291"/>
<path id="Vector_5" d="M104.837 36.2851V51.0001H100.142V36.2851H104.837ZM102.467 28.9351C104.042 28.9351 105.272 30.1651 105.272 31.7551C105.272 33.3301 104.042 34.5451 102.467 34.5451C100.877 34.5451 99.6621 33.3301 99.6621 31.7551C99.6621 30.1651 100.877 28.9351 102.467 28.9351Z" fill="#004291"/>
<path id="Vector_6" d="M88.1109 35.8801C89.9859 35.8801 91.2909 36.6301 92.1759 37.6951V29.4001H96.8559V51.0001H92.3259V49.4101C91.4409 50.5651 90.0909 51.3901 88.0959 51.3901C84.1659 51.3901 81.2559 47.9701 81.2559 43.6201C81.2559 39.3001 84.1659 35.8801 88.1109 35.8801ZM89.2209 40.2601C87.3459 40.2601 86.0859 41.7151 86.0859 43.6351C86.0859 45.5551 87.3459 47.0101 89.2209 47.0101C91.0659 47.0101 92.3709 45.5851 92.3709 43.6351C92.3709 41.6851 91.0659 40.2601 89.2209 40.2601Z" fill="#004291"/>
<path id="Vector_7" d="M78.6333 35.8801C79.3233 35.8801 79.9233 36.0001 80.2833 36.1051L79.8483 40.7851C79.2183 40.5751 78.3333 40.3951 77.4933 40.3951C75.8283 40.3951 74.8083 41.2201 74.8083 43.0501V51.0001H70.1133V36.2851H74.6133V37.9801C75.4683 36.5551 76.8333 35.8801 78.6333 35.8801Z" fill="#004291"/>
<path id="Vector_8" d="M66.8416 36.2851V51.0001H62.2966V49.4101C61.4116 50.5651 60.0616 51.3901 58.0666 51.3901C54.1366 51.3901 51.2266 47.9701 51.2266 43.6201C51.2266 39.3001 54.1366 35.8801 58.0816 35.8801C60.0616 35.8801 61.4116 36.7201 62.2966 37.8751V36.2851H66.8416ZM59.1916 40.2601C57.3166 40.2601 56.0566 41.7151 56.0566 43.6351C56.0566 45.5551 57.3166 47.0101 59.1916 47.0101C61.0366 47.0101 62.3416 45.5851 62.3416 43.6351C62.3416 41.6851 61.0366 40.2601 59.1916 40.2601Z" fill="#004291"/>
<path id="Vector_9" d="M49.2352 37.155L47.9302 40.815C46.4752 40.2 44.5852 39.69 43.0852 39.675C41.8552 39.675 41.3752 40.035 41.3752 40.575C41.3752 41.205 42.3052 41.355 43.7452 41.58L44.8252 41.745C47.9752 42.225 49.6402 43.74 49.6402 46.215C49.6402 49.44 47.1202 51.375 42.8302 51.375C40.3102 51.375 37.7152 50.925 36.0352 49.83L37.6702 46.2C39.1402 47.07 40.8202 47.58 42.8602 47.58C44.3152 47.58 44.9152 47.25 44.9152 46.62C44.9152 46.05 44.2552 45.825 42.5902 45.57L41.7352 45.45C38.1952 44.925 36.5452 43.455 36.5452 40.815C36.5452 37.68 38.9002 35.895 42.9052 35.895C45.2902 35.895 46.8202 36.225 49.2352 37.155Z" fill="#004291"/>
<path id="Vector_10" d="M33.5896 36.2851V51.0001H29.0446V49.4101C28.1596 50.5651 26.8096 51.3901 24.8146 51.3901C20.8846 51.3901 17.9746 47.9701 17.9746 43.6201C17.9746 39.3001 20.8846 35.8801 24.8296 35.8801C26.8096 35.8801 28.1596 36.7201 29.0446 37.8751V36.2851H33.5896ZM25.9396 40.2601C24.0646 40.2601 22.8046 41.7151 22.8046 43.6351C22.8046 45.5551 24.0646 47.0101 25.9396 47.0101C27.7846 47.0101 29.0896 45.5851 29.0896 43.6351C29.0896 41.6851 27.7846 40.2601 25.9396 40.2601Z" fill="#004291"/>
<path id="Vector_11" d="M9.39539 35.8801C13.3254 35.8801 16.2504 39.3001 16.2504 43.6201C16.2504 47.9701 13.3254 51.3901 9.39539 51.3901C7.40039 51.3901 6.06539 50.5801 5.18039 49.4251V51.0001H0.650391V29.4001H5.33039V37.6951C6.21539 36.6301 7.50539 35.8801 9.39539 35.8801ZM8.27039 40.2601C6.42539 40.2601 5.13539 41.6851 5.13539 43.6351C5.13539 45.5851 6.42539 47.0101 8.27039 47.0101C10.1604 47.0101 11.4204 45.5551 11.4204 43.6351C11.4204 41.7151 10.1604 40.2601 8.27039 40.2601Z" fill="#004291"/>
<path id="Vector_12" d="M113.158 1.40015V23.0001H108.463V1.40015H113.158Z" fill="#004291"/>
<path id="Vector_13" d="M105.277 8.28516V16.7002C105.277 21.3052 102.097 23.3902 98.1823 23.3902C94.2523 23.3902 91.0723 21.3052 91.0723 16.6852V8.28516H95.7673V16.2802C95.7673 18.1552 96.7723 19.0102 98.1823 19.0102C99.5773 19.0102 100.597 18.1552 100.597 16.2802V8.28516H105.277Z" fill="#004291"/>
<path id="Vector_14" d="M81.8173 7.88015C85.7473 7.88015 88.6723 11.3001 88.6723 15.6201C88.6723 19.9701 85.7473 23.3901 81.8173 23.3901C79.8223 23.3901 78.4873 22.5801 77.6023 21.4251V23.0001H73.0723V1.40015H77.7523V9.69515C78.6373 8.63015 79.9273 7.88015 81.8173 7.88015ZM80.6923 12.2601C78.8473 12.2601 77.5573 13.6851 77.5573 15.6351C77.5573 17.5851 78.8473 19.0101 80.6923 19.0101C82.5823 19.0101 83.8423 17.5551 83.8423 15.6351C83.8423 13.7151 82.5823 12.2601 80.6923 12.2601Z" fill="#004291"/>
<path id="Vector_15" d="M64.6671 7.88013C67.6071 7.88013 69.8871 9.93513 69.8871 13.3401V23.0001H65.1921V15.0051C65.1921 13.2651 64.3221 12.2901 62.8671 12.2901C61.5621 12.2901 60.4821 13.1751 60.4821 15.0801V23.0001H55.7871V8.28513H60.2871V10.1301C61.2171 8.58513 62.7021 7.88013 64.6671 7.88013Z" fill="#004291"/>
<path id="Vector_16" d="M52.5154 8.28513V23.0001H47.9704V21.4101C47.0854 22.5651 45.7354 23.3901 43.7404 23.3901C39.8104 23.3901 36.9004 19.9701 36.9004 15.6201C36.9004 11.3001 39.8104 7.88013 43.7554 7.88013C45.7354 7.88013 47.0854 8.72013 47.9704 9.87513V8.28513H52.5154ZM44.8654 12.2601C42.9904 12.2601 41.7304 13.7151 41.7304 15.6351C41.7304 17.5551 42.9904 19.0101 44.8654 19.0101C46.7104 19.0101 48.0154 17.5851 48.0154 15.6351C48.0154 13.6851 46.7104 12.2601 44.8654 12.2601Z" fill="#004291"/>
<path id="Vector_17" d="M34.9865 8.28512V12.4401H29.9615V16.7451C29.9615 18.4401 30.8615 19.0101 32.0465 19.0101C32.9165 19.0101 33.8615 18.5301 34.5965 18.0951L36.2165 21.7551C34.8365 22.7151 33.3665 23.3901 30.9965 23.3901C27.0515 23.3901 25.2665 21.0351 25.2665 17.3451V12.4401H22.5215V8.28512H25.2665V3.99512H29.9615V8.28512H34.9865Z" fill="#004291"/>
<path id="Vector_18" d="M20.993 9.15502L19.688 12.815C18.233 12.2 16.343 11.69 14.843 11.675C13.613 11.675 13.133 12.035 13.133 12.575C13.133 13.205 14.063 13.355 15.503 13.58L16.583 13.745C19.733 14.225 21.398 15.74 21.398 18.215C21.398 21.44 18.878 23.375 14.588 23.375C12.068 23.375 9.47297 22.925 7.79297 21.83L9.42797 18.2C10.898 19.07 12.578 19.58 14.618 19.58C16.073 19.58 16.673 19.25 16.673 18.62C16.673 18.05 16.013 17.825 14.348 17.57L13.493 17.45C9.95297 16.925 8.30297 15.455 8.30297 12.815C8.30297 9.68002 10.658 7.89502 14.663 7.89502C17.048 7.89502 18.578 8.22502 20.993 9.15502Z" fill="#004291"/>
<path id="Vector_19" d="M5.34492 8.28506V23.0001H0.649922V8.28506H5.34492ZM2.97492 0.935059C4.54992 0.935059 5.77992 2.16506 5.77992 3.75506C5.77992 5.33006 4.54992 6.54506 2.97492 6.54506C1.38492 6.54506 0.169922 5.33006 0.169922 3.75506C0.169922 2.16506 1.38492 0.935059 2.97492 0.935059Z" fill="#004291"/>
</g>
</svg>
