<svg width="113" height="111" viewBox="0 0 113 111" fill="none" xmlns="http://www.w3.org/2000/svg">
<g id="Vector">
<path d="M109.839 78.6408L101.991 67.0296C101.133 68.0242 100.172 68.8578 99.0785 69.4908L106.666 80.716C107.083 81.3335 106.626 82.1451 105.896 82.1451C105.871 82.1451 105.846 82.1429 105.82 82.1407L70.4673 79.5163H70.4314C70.2903 79.5163 70.1559 79.5781 70.064 79.6883L47.6697 106.909C47.4771 107.143 47.2105 107.251 46.9483 107.251C46.5428 107.251 46.1463 106.995 46.0365 106.545L38.1506 73.9765C38.0834 73.6942 37.7473 73.5685 37.5054 73.7339C36.607 74.358 35.628 74.9071 34.584 75.4077L42.331 107.414C42.8418 109.525 44.7416 111 46.9483 111C48.3822 111 49.7241 110.369 50.6292 109.269L71.9257 83.3845L105.535 85.8788C105.654 85.8876 105.775 85.8942 105.896 85.8942C107.643 85.8942 109.243 84.9481 110.072 83.4286C110.898 81.9113 110.809 80.0743 109.839 78.6408ZM36.262 4.63125C36.2844 4.09976 36.7302 3.74911 37.1984 3.74911C37.4068 3.74911 37.6196 3.81747 37.8011 3.96964L64.7455 26.676C64.8329 26.751 64.9426 26.7885 65.0546 26.7885C65.095 26.7885 65.1375 26.7841 65.1779 26.773L99.5781 17.623C99.6632 17.601 99.7461 17.5899 99.8267 17.5899C100.463 17.5899 100.947 18.2405 100.68 18.8646L94.1923 34.0375H98.3235L104.191 20.3202C104.809 18.8756 104.652 17.2349 103.772 15.9293C102.889 14.6215 101.415 13.8408 99.8267 13.8408C99.4078 13.8408 98.9911 13.896 98.5834 14.004L65.8836 22.7019L40.2767 1.12253C39.4186 0.399169 38.3253 0 37.1984 0C34.6445 0 32.5632 1.96497 32.4557 4.47467L31.2101 34.0375H35.0231L36.262 4.63125ZM4.22535 58.303L10.4535 54.2209H4.19847C4.0394 54.2209 3.89154 54.1768 3.76608 54.0996L2.11496 55.1824C0.625148 56.1572 -0.172408 57.8487 0.0314617 59.5975C0.233091 61.3442 1.39806 62.8152 3.07158 63.4349L13.8543 67.4288L15.8392 64.1582L4.41354 59.9262C3.70111 59.6637 3.59134 58.7176 4.22535 58.303Z" fill="white"/>
<path d="M4.4316 36.9596V51.7796H8.51796V36.9596H4.4316ZM7.84586 32.4231C7.40451 31.9887 6.85788 31.7726 6.20594 31.7726C5.55401 31.7726 5.00737 31.9887 4.56602 32.4231C4.12468 32.8576 3.90513 33.3957 3.90513 34.0375C3.90513 34.6792 4.12468 35.2173 4.56602 35.6518C5.00737 36.0862 5.55401 36.3024 6.20594 36.3024C6.85788 36.3024 7.40451 36.0862 7.84586 35.6518C8.2872 35.2173 8.50675 34.6792 8.50675 34.0375C8.50675 33.3957 8.2872 32.8576 7.84586 32.4231Z" fill="white"/>
<path d="M22.7619 44.1204C21.9756 43.3904 20.8061 42.8765 19.2514 42.581L18.7674 42.484C18.6017 42.4509 18.3866 42.4112 18.1222 42.3693C17.8556 42.3274 17.6406 42.2899 17.477 42.2568C17.3112 42.226 17.1253 42.1885 16.9169 42.1466C16.7086 42.1047 16.5406 42.0561 16.4106 42.0032C16.2829 41.9503 16.1575 41.8907 16.0342 41.8224C15.9133 41.7562 15.8259 41.6746 15.7721 41.5798C15.7184 41.485 15.6915 41.3813 15.6915 41.2666C15.6915 40.9491 15.8685 40.7109 16.2224 40.5477C16.5786 40.3867 17.0469 40.3051 17.6271 40.3051C19.0385 40.3051 20.488 40.7175 21.9711 41.5423L23.7342 38.2497C22.5312 37.6234 21.4514 37.2066 20.497 37.0015C19.5448 36.7964 18.5053 36.6949 17.3784 36.6949C15.5727 36.6949 14.112 37.1294 12.9964 37.9961C11.8829 38.865 11.3072 40.0074 11.2713 41.4276C11.2355 42.7464 11.6006 43.7829 12.3691 44.5394C13.1353 45.2936 14.3786 45.8163 16.0992 46.1052L16.6705 46.2C16.7063 46.2088 16.7556 46.2154 16.8206 46.2221C17.2866 46.2993 17.6742 46.3698 17.9878 46.4338C18.2992 46.4977 18.5703 46.5705 18.8033 46.6565C19.0363 46.7403 19.2065 46.844 19.3141 46.9675C19.4216 47.091 19.4754 47.2453 19.4754 47.4284C19.4754 47.7746 19.3051 48.0327 18.9601 48.2003C18.6151 48.3701 18.1536 48.4561 17.5733 48.4561C16.8632 48.4561 16.1776 48.3701 15.5145 48.1959C14.8514 48.0238 14.3383 47.8474 13.9754 47.6666C13.6147 47.4879 13.1711 47.2409 12.6469 46.9322L10.6485 50.2116C11.4998 50.8136 12.5192 51.2701 13.7021 51.5833C14.885 51.8964 16.1575 52.0552 17.5196 52.0552C18.1782 52.0552 18.8122 51.9979 19.4171 51.8854C20.022 51.7729 20.6045 51.5855 21.1601 51.3253C21.7157 51.0628 22.1974 50.7386 22.6051 50.3505C23.0151 49.9623 23.3377 49.475 23.5797 48.8883C23.8194 48.3039 23.9381 47.6467 23.9381 46.9212C23.9381 45.7854 23.5461 44.8503 22.7619 44.1204Z" fill="white"/>
<path d="M24.9933 36.9596V40.6646H29.2723V51.7796H33.3587V40.6646H37.6399V36.9596H24.9933Z" fill="white"/>
<path d="M47.0045 36.9596H42.1878L36.4884 51.7796H40.7585L41.7465 48.9523H47.3719L48.3711 51.7796H52.7039L47.0045 36.9596ZM43.0167 45.3642L44.5648 40.9821L46.1017 45.3642H43.0167Z" fill="white"/>
<path d="M64.4253 36.9596V45.2914L58.2218 36.9596H54.243V51.7796H58.3293V43.4477L64.5328 51.7796H68.5116V36.9596H64.4253Z" fill="white"/>
<path d="M83.3202 45.5803C82.89 44.9981 82.3367 44.5857 81.6623 44.3365C82.2717 44.0344 82.7578 43.6131 83.1208 43.0728C83.4815 42.5325 83.6629 41.9128 83.6629 41.2159C83.6629 39.8596 83.1835 38.8121 82.2224 38.0711C81.2613 37.3301 79.7961 36.9596 77.8246 36.9596H71.0701V51.7796H78.2122C80.1479 51.7796 81.5906 51.4091 82.5405 50.6681C83.4904 49.9271 83.9654 48.8795 83.9654 47.5232C83.9654 46.8109 83.7503 46.1647 83.3202 45.5803ZM75.1564 40.2411H77.7373C78.8642 40.2411 79.4265 40.6513 79.4265 41.4695C79.4265 42.2877 78.8597 42.7067 77.7283 42.7067H75.1564V40.2411ZM77.9859 48.5178L75.1564 48.509V45.9684H77.9859C79.1688 45.9684 79.7603 46.3919 79.7603 47.2387C79.7603 48.0856 79.1688 48.5178 77.9859 48.5178Z" fill="white"/>
<path d="M95.1155 36.9596V45.6178C95.1155 46.458 94.8892 47.0998 94.4322 47.5387C93.9774 47.9819 93.3479 48.2003 92.5458 48.2003C91.7438 48.2003 91.1143 47.9819 90.6595 47.5387C90.2024 47.0998 89.9762 46.458 89.9762 45.6178V36.9596H85.8786V45.7347C85.8786 47.7614 86.4521 49.3206 87.5992 50.4144C88.632 51.398 90.0703 51.9406 91.9163 52.0376C92.1045 51.7399 92.2971 51.4377 92.4943 51.1312C93.3434 49.808 94.1857 48.6303 95.0729 47.5232C95.801 46.6146 96.7196 46.0522 97.7971 45.8538C98.0413 45.8097 98.2923 45.781 98.588 45.7678C98.635 45.7678 98.6798 45.7633 98.7224 45.7633H98.7246C98.8904 45.7633 99.054 45.7788 99.2108 45.8119C99.2108 45.7876 99.2108 45.7611 99.2108 45.7347V36.9596H95.1132H95.1155Z" fill="white"/>
<path d="M105.75 48.0746V36.9596H101.664V51.7796H113V48.0746H105.75Z" fill="white"/>
<path d="M32.355 54.6774C31.6045 54.1084 30.7285 53.8349 29.8033 53.7092C28.6898 53.5571 27.5697 53.5791 26.4562 53.6784C24.8903 53.8173 23.3668 54.1503 21.8815 54.6598C19.7711 55.3853 17.8265 56.4086 16.1149 57.8333C15.4786 58.3625 14.9567 58.9889 14.6296 59.7519C14.4727 60.118 14.3898 60.4973 14.4391 60.8987C14.5063 61.4478 14.9096 62.0257 15.5951 62.1161C15.9558 62.1624 16.3076 62.1403 16.6548 62.0543C17.3023 61.8933 17.7884 61.5052 18.1603 60.9715C18.2723 60.8105 18.2141 60.6495 18.0371 60.5635C17.9744 60.5326 17.9049 60.5194 17.8355 60.5194C17.7907 60.5194 17.7503 60.5084 17.7324 60.4643C17.7123 60.4135 17.7257 60.3694 17.7683 60.3341C17.7996 60.3077 17.8332 60.2812 17.8646 60.2547C18.2365 59.9636 18.6151 59.6814 19.0072 59.4145C20.4253 58.4508 21.9554 57.712 23.6043 57.2091C24.4937 56.9379 25.3988 56.7416 26.3218 56.6203C27.0275 56.5277 27.7377 56.4483 28.4524 56.4902C28.8646 56.5145 29.2723 56.5674 29.6621 56.7151C30.332 56.9688 30.556 57.465 30.2917 58.1178C30.276 58.1552 30.2603 58.1949 30.2424 58.2324C30.099 58.5324 29.9131 58.808 29.698 59.0616C29.3059 59.5226 28.8556 59.9262 28.374 60.2922C26.277 61.8889 23.9874 63.1548 21.5253 64.1185C21.4603 64.1428 21.3976 64.1803 21.308 64.145C21.3147 64.1163 21.3147 64.0943 21.3237 64.0766C21.3864 63.9774 21.4469 63.8781 21.5163 63.7811C22.7619 62.019 23.9426 60.2151 25.0874 58.389C25.1725 58.2545 25.2487 58.1155 25.2801 57.9568C25.3406 57.648 25.233 57.4981 24.9194 57.4561C24.3414 57.379 23.7768 57.4539 23.2212 57.6105C22.6029 57.787 22.1033 58.1155 21.7269 58.6426C21.2856 59.2623 20.8196 59.8644 20.3782 60.4841C19.0228 62.3895 17.7548 64.3501 16.4532 66.2908C15.2188 68.1345 14 69.987 12.8687 71.8946C12.4789 72.554 12.0958 73.2178 11.7306 73.8927C11.4909 74.3315 11.3094 74.7903 11.2691 75.2953C11.2198 75.9172 11.5245 76.3627 12.1338 76.5391C12.2951 76.5854 12.4632 76.6031 12.6312 76.6097C13.2518 76.6339 13.7312 76.4068 14.0359 75.8576C14.2868 75.4055 14.5422 74.9534 14.7953 74.5035C14.829 74.444 14.8581 74.3801 14.8962 74.3227C14.9701 74.2102 15.0373 74.208 15.1269 74.3073C15.1493 74.3337 15.1695 74.3624 15.1896 74.3911C15.4428 74.7461 15.7632 75.0262 16.144 75.2446C16.843 75.6437 17.6137 75.7981 18.409 75.8466C19.0027 75.8819 19.5941 75.851 20.1878 75.7782C21.1265 75.6636 22.0473 75.4717 22.9456 75.1762C24.6012 74.6359 26.0978 73.8067 27.4577 72.7305C28.2351 72.1152 28.9497 71.4403 29.5008 70.6155C29.9198 69.987 30.2446 69.3188 30.332 68.5645C30.4642 67.4288 30.1281 66.4716 29.1738 65.7659C28.4703 65.2477 27.6727 64.9522 26.8124 64.8154C26.7228 64.8022 26.6355 64.7978 26.5526 64.7338C26.6243 64.6191 26.7452 64.5927 26.8483 64.5442C28.1432 63.9311 29.3642 63.1967 30.4888 62.3145C31.3065 61.6728 32.0548 60.9627 32.6575 60.1158C33.1907 59.366 33.5782 58.5566 33.6522 57.6326C33.7507 56.4262 33.3475 55.4272 32.3617 54.6818L32.355 54.6774ZM27.0029 68.0816C27.0903 68.1654 27.1261 68.258 27.1194 68.3771C27.1082 68.6572 26.9984 68.8975 26.8237 69.1115C25.9342 70.1943 24.8746 71.0764 23.6312 71.7424C22.7463 72.2166 21.8098 72.5452 20.8084 72.6841C20.4342 72.7371 20.0579 72.7547 19.6793 72.7393C19.4619 72.7393 19.2469 72.7437 19.0296 72.7393C18.8235 72.7327 18.6308 72.6709 18.4628 72.5518C18.1782 72.3533 18.1558 72.0556 18.4023 71.8152C18.4717 71.7469 18.5591 71.7005 18.642 71.652C18.7428 71.5925 18.8503 71.5373 18.9444 71.4668C19.1393 71.3212 19.1259 71.083 18.9153 70.9551C18.7876 70.8757 18.6465 70.8449 18.4964 70.836C18.0707 70.8074 17.6607 70.8846 17.2575 70.9992C17.1768 71.0213 17.0962 71.0411 17.0133 71.061C16.9729 71.0698 16.9237 71.0853 16.8945 71.0478C16.8587 71.0059 16.8811 70.9551 16.9057 70.9132C16.9281 70.8713 16.9528 70.8294 16.9774 70.7875C17.6316 69.762 18.2858 68.7388 18.9399 67.7133C18.9579 67.6846 18.9758 67.6537 18.9982 67.6273C19.0744 67.539 19.1192 67.5346 19.2088 67.6052C19.2424 67.6317 19.2693 67.6625 19.3029 67.689C19.4821 67.8279 19.6658 67.872 19.8831 67.7552C20.1788 67.5964 20.488 67.4707 20.8218 67.4089C21.3505 67.3097 21.8815 67.2347 22.4192 67.1884C22.9412 67.1421 23.4654 67.1288 23.9896 67.1465C24.5072 67.1619 25.0224 67.1928 25.531 67.2987C26.0978 67.4177 26.5862 67.6868 27.0006 68.086L27.0029 68.0816ZM100.9 63.4084C100.752 63.1305 100.456 63.082 100.217 63.2893C100.17 63.3312 100.125 63.3731 100.082 63.4194C99.688 63.8186 99.2937 64.22 98.8971 64.6169C98.4961 65.0205 98.0817 65.4109 97.6157 65.7417C97.1631 66.0614 96.6792 66.3173 96.1438 66.4716C96.0631 66.4959 95.9825 66.5135 95.8973 66.5135C95.7428 66.5135 95.68 66.4584 95.6576 66.3107C95.6509 66.2643 95.6532 66.2158 95.6576 66.1673C95.6756 65.8475 95.8055 65.5696 95.978 65.305C97.5485 62.8813 99.0562 60.4179 100.503 57.9193C100.586 57.7759 100.667 57.6326 100.721 57.4738C100.871 57.0261 100.754 56.6424 100.374 56.3579C100.297 56.3005 100.212 56.2476 100.127 56.2035C99.8246 56.0491 99.4976 55.9741 99.1615 55.9455C98.9263 55.9256 98.7224 56.005 98.5589 56.1792C98.4737 56.2719 98.4088 56.3777 98.3393 56.4814C97.0623 58.4199 95.8324 60.3893 94.6316 62.3763C94.1364 63.1945 93.5831 63.9708 92.9334 64.6765C92.3711 65.2896 91.7931 65.8894 91.1075 66.3746C90.5161 66.7936 89.8642 67.0561 89.1271 67.0781C88.7731 67.0891 88.5984 66.8686 88.6902 66.5312C88.8336 65.9975 89.0195 65.4792 89.2682 64.9852C90.0187 63.479 90.832 62.0036 91.6676 60.5392C93.4106 57.4936 95.288 54.5296 97.2259 51.5987C97.8442 50.6659 98.467 49.7352 99.0853 48.8023C99.1929 48.6413 99.2959 48.4759 99.3654 48.2951C99.5692 47.7592 99.2713 47.2784 98.6709 47.3093C98.4737 47.3181 98.2811 47.338 98.0884 47.3733C97.3446 47.51 96.7688 47.9025 96.3051 48.4804C95.4134 49.5941 94.5912 50.7585 93.8206 51.956C92.7071 53.6894 91.6116 55.4316 90.543 57.1915C90.4063 57.4165 90.3973 57.4209 90.1756 57.2819C89.8283 57.0636 89.4475 57.0063 89.0487 57.0724C88.3139 57.1937 87.6149 57.4275 86.9383 57.7318C85.9212 58.1905 85.0026 58.8014 84.12 59.4718C82.2605 60.8855 80.7281 62.5792 79.6012 64.6191C79.3145 65.1396 79.0389 65.6645 78.8597 66.2335C78.5864 67.0936 78.5281 67.9603 78.7857 68.8336C78.9515 69.3981 79.3055 69.7841 79.9014 69.9252C80.1411 69.9826 80.3831 70.0002 80.6295 69.9737C81.1269 69.9208 81.6041 69.7929 82.0544 69.579C82.6301 69.3077 83.1633 68.9659 83.6764 68.5976C84.5725 67.9536 85.3768 67.2104 86.1094 66.3923C86.1721 66.3217 86.2236 66.2379 86.3244 66.2026C86.3692 66.2798 86.3312 66.3437 86.3155 66.4055C86.2729 66.5576 86.2259 66.7098 86.1878 66.862C86.0735 67.3053 85.9996 67.7508 86.0466 68.2095C86.0959 68.7145 86.3312 69.1093 86.7792 69.3717C86.9741 69.4864 87.1825 69.5636 87.3998 69.6143C88.2197 69.8039 89.0375 69.7709 89.853 69.5922C90.8633 69.3673 91.7729 68.9262 92.613 68.3396C92.9043 68.1367 92.8729 68.1477 93.1081 68.3771C93.6727 68.9262 94.3493 69.2041 95.1424 69.2129C95.6733 69.2173 96.1841 69.1181 96.6792 68.935C98.0884 68.419 99.2422 67.5457 100.23 66.4496C100.757 65.8652 101.057 65.1793 101.099 64.3942C101.117 64.0524 101.064 63.7216 100.9 63.415V63.4084ZM84.689 64.478C83.9564 65.2344 83.2037 65.971 82.4375 66.6944C82.2963 66.8289 82.144 66.948 81.9715 67.045C81.8998 67.0847 81.8236 67.1244 81.7452 67.1509C81.6108 67.195 81.5548 67.1487 81.5749 67.0142C81.5862 66.9392 81.6108 66.8664 81.6422 66.798C82.0185 65.938 82.4599 65.1109 83.0043 64.3413C84.2477 62.5836 85.8562 61.2207 87.7157 60.1335C87.98 59.9791 88.2578 59.8512 88.5424 59.7343C88.6051 59.7078 88.6656 59.6725 88.7664 59.6902C88.744 59.8027 88.6813 59.8754 88.623 59.9504C87.3908 61.5272 86.0847 63.0401 84.6912 64.4802L84.689 64.478ZM57.31 59.7497C57.2898 59.6262 57.2204 59.5204 57.1352 59.4255C57.0008 59.2778 56.8328 59.1829 56.6446 59.119C56.2638 58.9889 55.8672 58.9558 55.4662 58.9624C54.6261 58.9778 53.8218 59.1807 53.0287 59.4321C51.3485 59.9636 49.7937 60.7576 48.3353 61.7279C47.6385 62.1933 47 62.7292 46.478 63.3841C45.9874 63.9994 45.6312 64.6765 45.5035 65.4572C45.3735 66.2599 45.676 66.8929 46.3884 67.3009C46.7917 67.5324 47.2308 67.6736 47.6856 67.753C48.3868 67.8743 49.0925 67.9735 49.7959 68.086C50.2575 68.1587 50.7145 68.258 51.1625 68.3969C51.3798 68.4653 51.409 68.5667 51.2656 68.7432C51.1827 68.8468 51.0797 68.9306 50.9654 68.9968C50.6047 69.2085 50.235 69.4004 49.8497 69.5658C48.9849 69.9385 48.0776 70.1524 47.1412 70.2494C46.888 70.2759 46.6371 70.2582 46.3996 70.1568C46.0188 69.9914 45.8149 69.6804 45.7006 69.3033C45.6334 69.0784 45.6222 68.8424 45.6155 68.6086C45.611 68.3947 45.5998 68.1808 45.5438 67.9757C45.4632 67.678 45.1809 67.5434 44.8874 67.6515C44.7485 67.7022 44.6253 67.7794 44.5222 67.8875C44.4416 67.9735 44.3632 68.0595 44.2847 68.1499C43.7852 68.7255 43.2721 69.2901 42.7008 69.7973C42.3021 70.1546 41.8764 70.4766 41.3992 70.7302C41.3141 70.7765 41.2267 70.8228 41.1281 70.8382C40.978 70.8603 40.9041 70.814 40.8615 70.6706C40.8324 70.5758 40.8391 70.4788 40.8481 70.3839C40.8862 69.9429 40.9959 69.5172 41.1595 69.1048C41.8271 67.4376 42.6336 65.8387 43.5768 64.306C43.8927 63.7943 44.2287 63.2959 44.5536 62.7909C44.7978 62.4116 44.8135 62.0168 44.5984 61.6155C44.5424 61.5118 44.4617 61.4412 44.3497 61.4081C43.5589 61.17 42.8308 61.2207 42.2236 61.847C42.0937 61.9793 42.0758 61.9793 41.9279 61.8647C41.5874 61.6022 41.1953 61.4699 40.7697 61.4302C40.1469 61.3729 39.5465 61.4787 38.9528 61.6618C38.2471 61.8801 37.5974 62.2043 36.9746 62.5946C35.1644 63.7304 33.5917 65.1176 32.3438 66.8465C31.665 67.7882 31.1206 68.8005 30.7823 69.9142C30.5515 70.675 30.4485 71.4447 30.5807 72.2364C30.7509 73.2509 31.5104 73.9544 32.5477 74.0537C33.0114 74.0978 33.4528 74.0051 33.8829 73.853C34.5886 73.6038 35.2137 73.2156 35.8096 72.779C36.5556 72.2298 37.2344 71.6057 37.8774 70.9419C37.9379 70.8801 37.9849 70.7986 38.079 70.7787C38.144 70.8294 38.1261 70.8956 38.1261 70.9551C38.1261 71.1536 38.1351 71.3543 38.1238 71.5528C38.0813 72.2519 38.6369 73.2487 39.6585 73.4825C40.0035 73.5619 40.3507 73.5729 40.698 73.5134C41.2155 73.4273 41.6882 73.2311 42.1408 72.973C42.7188 72.6422 43.2363 72.2387 43.7247 71.7932C43.9016 71.6322 43.9263 71.5351 44.0697 71.8571C44.3363 72.4504 44.7911 72.8231 45.4564 72.9311C45.6289 72.9598 45.8037 72.973 45.9784 72.9841C46.7827 73.0326 47.587 73.0149 48.3711 72.8054C49.3322 72.5496 50.2574 72.2012 51.1379 71.7424C51.9511 71.319 52.7128 70.8228 53.3581 70.17C53.7792 69.7422 54.1377 69.268 54.3528 68.7057C54.6395 67.9603 54.5297 67.2744 54.001 66.6635C53.6336 66.2401 53.1609 65.9843 52.6255 65.8365C51.7428 65.5917 50.8467 65.4241 49.9371 65.3116C49.4935 65.2565 49.0499 65.2124 48.6041 65.1639C48.5122 65.1528 48.4181 65.1418 48.389 65.0338C48.3621 64.9389 48.4226 64.8772 48.4831 64.8198C48.6399 64.6743 48.7945 64.5243 48.9558 64.381C50.02 63.4415 51.2298 62.7446 52.5605 62.2418C52.7621 62.1646 52.966 62.0962 53.1744 62.0323C53.3177 61.9882 53.3581 62.0301 53.32 62.169C53.2976 62.255 53.2617 62.3388 53.2371 62.4226C53.2102 62.5108 53.2012 62.6012 53.2662 62.6784C53.5619 63.0335 53.9293 63.2584 54.411 63.1901C55.0159 63.1041 55.5581 62.8482 56.0644 62.5196C56.3758 62.319 56.6648 62.0896 56.8888 61.7941C57.3548 61.1788 57.4198 60.4819 57.3033 59.7519L57.31 59.7497ZM40.6868 63.7789C39.8915 64.8507 39.0894 65.9159 38.2471 66.9524C37.6489 67.6868 36.9544 68.3197 36.2509 68.9505C35.4399 69.6782 34.5976 70.3707 33.7328 71.0323C33.6835 71.0698 33.6342 71.1095 33.5805 71.1404C33.4953 71.1889 33.4057 71.1977 33.3273 71.1316C33.2511 71.0654 33.2713 70.9816 33.3049 70.9022C33.3833 70.7258 33.4617 70.5493 33.5491 70.3773C34.4206 68.6505 35.5385 67.098 36.9701 65.7747C37.8685 64.9455 38.8609 64.2508 40.0214 63.8142C40.2611 63.7238 40.5031 63.6378 40.7742 63.5892C40.7742 63.6863 40.7226 63.7304 40.6868 63.7789ZM83.7167 58.2192C83.5464 58.0758 83.3605 57.9546 83.1611 57.8509C82.7399 57.6326 82.2851 57.5377 81.8147 57.4914C81.0485 57.4165 80.2935 57.4562 79.5497 57.6524C78.5281 57.9215 77.6499 58.4397 76.8748 59.1388C76.8075 59.1984 76.7403 59.2601 76.6731 59.3175C76.6507 59.3351 76.6216 59.3461 76.5969 59.3285C76.5566 59.2998 76.5813 59.2667 76.5969 59.2403C76.6238 59.2006 76.653 59.1609 76.6798 59.1212C76.8635 58.8279 76.9285 58.5103 76.8658 58.1707C76.8255 57.9501 76.7045 57.8487 76.4737 57.8465C76.3416 57.8465 76.2094 57.8597 76.0772 57.8685C75.1564 57.9347 74.4059 58.3184 73.8122 59.0131C73.5008 59.377 73.2409 59.7762 72.99 60.182C71.9416 61.8823 70.8796 63.5716 69.7864 65.2433C69.3809 65.863 68.9978 66.4959 68.543 67.0803C68.0479 67.7155 67.4676 68.2536 66.7373 68.6241C66.5379 68.7255 66.3385 68.827 66.1145 68.8645C65.7 68.935 65.5051 68.7321 65.6059 68.3352C65.6709 68.0816 65.7448 67.8324 65.821 67.5809C66.213 66.2886 66.791 65.0779 67.4407 63.8958C67.9941 62.8924 68.5878 61.911 69.242 60.9671C69.3898 60.7554 69.5086 60.5326 69.5489 60.2746C69.6206 59.8357 69.4189 59.5005 68.9933 59.3594C68.6953 59.2579 68.3839 59.2315 68.0815 59.2932C67.6894 59.3726 67.2817 59.4454 67.033 59.8203C66.9501 59.9438 66.8291 59.9438 66.7037 59.8578C66.6745 59.8379 66.6499 59.8159 66.623 59.7916C66.4236 59.6152 66.1884 59.5226 65.9263 59.4851C65.3662 59.4057 64.8106 59.4366 64.2595 59.5534C63.2558 59.7652 62.3485 60.1974 61.4949 60.7487C60.3255 61.5052 59.2994 62.4248 58.3383 63.4194C57.6483 64.1362 57.021 64.8992 56.5236 65.7593C55.9389 66.765 55.511 67.8279 55.3632 68.9835C55.2937 69.5194 55.2915 70.0575 55.4729 70.5758C55.7373 71.3256 56.2279 71.8527 57.0412 72.0336C57.431 72.1218 57.8208 72.0755 58.2039 71.9806C58.9634 71.7976 59.631 71.4271 60.2672 70.997C61.1409 70.4082 61.934 69.7245 62.6599 68.9637C62.7293 68.8909 62.7898 68.8005 62.9198 68.763C62.9579 68.8821 62.9332 68.9858 62.9242 69.085C62.8884 69.5525 62.9377 70.0046 63.1393 70.4347C63.3723 70.9309 63.733 71.2837 64.2864 71.4094C64.7255 71.5109 65.1735 71.5175 65.6194 71.4469C66.2623 71.3455 66.8314 71.0786 67.3466 70.6927C67.5505 70.5405 67.7521 70.5052 67.9941 70.5846C68.2921 70.6817 68.599 70.7566 68.9126 70.7897C69.764 70.8824 70.3285 70.6751 70.6959 69.9186C70.7116 69.8877 70.7273 69.8569 70.7452 69.8282C71.2045 68.9858 71.6682 68.1455 72.1656 67.3229C72.9161 66.0791 73.7137 64.8683 74.6546 63.7546C75.553 62.6895 76.5499 61.7323 77.7418 60.9847C78.2906 60.6407 78.8642 60.3385 79.4825 60.1312C80.0717 59.935 80.6676 59.9041 81.2344 60.1908C81.6556 60.4047 81.622 60.3849 82.0029 60.1401C82.6615 59.7144 83.2395 59.1984 83.7548 58.6118C83.9026 58.4419 83.8959 58.367 83.7212 58.217L83.7167 58.2192ZM65.5589 61.6971C65.5387 61.7412 65.5141 61.7831 65.4849 61.8206C64.6358 62.8857 63.8473 63.9994 62.9579 65.036C62.1177 66.0151 61.1633 66.8862 60.1776 67.7221C59.7228 68.108 59.2591 68.4851 58.7886 68.8534C58.6407 68.9681 58.4884 69.0806 58.3181 69.1622C58.186 69.2261 58.0919 69.1622 58.1098 68.9857C58.1524 68.8645 58.1994 68.7057 58.2599 68.5535C58.4862 67.9867 58.7976 67.4663 59.1247 66.9524C59.8393 65.8277 60.6705 64.7956 61.6607 63.8892C62.7047 62.9321 63.8697 62.1646 65.2139 61.675C65.3057 61.6419 65.3931 61.5978 65.4939 61.6022C65.5589 61.6044 65.5858 61.6375 65.5589 61.6971ZM47.0964 73.4384C46.487 73.3391 45.8731 73.3259 45.2593 73.3921C45.1249 73.4075 45.0218 73.4604 44.9479 73.5707C44.5088 74.2323 44.0674 74.8917 43.6283 75.5555C43.5163 75.7253 43.4513 75.9128 43.4581 76.1201C43.4648 76.3759 43.6082 76.5457 43.8658 76.592C43.9913 76.6141 44.1167 76.6075 44.2735 76.5986C44.4304 76.5986 44.6186 76.5766 44.8045 76.5479C45.555 76.4266 46.2002 76.1157 46.6662 75.5048C46.9843 75.0858 47.2621 74.6403 47.4884 74.1661C47.6609 73.8045 47.5019 73.5045 47.0986 73.4384H47.0964Z" fill="white"/>
</g>
</svg>
