<svg width="31" height="42" viewBox="0 0 31 42" fill="none" xmlns="http://www.w3.org/2000/svg">
<path d="M0 30.204C0 24.0612 0 17.9185 0 11.7665C0.148949 11.0644 0.204805 10.3439 0.363063 9.64188C1.58258 4.41359 6.3955 0.3492 11.7763 0.0628446C13.936 -0.0572397 16.1051 0.0351328 18.2742 0.0166583C19.0189 0.00742105 19.7637 0.0628446 20.4898 0.201403C26.7456 1.38377 30.9907 6.4735 31 12.8103C31 18.2602 31 23.7102 31 29.1694C31 29.6405 30.9721 30.1209 30.9255 30.592C30.4135 35.9773 26.4384 40.4574 21.1321 41.649C20.2571 41.843 19.3634 41.8799 18.4697 42C16.4868 42 14.5132 42 12.5303 42C12.3348 41.9723 12.1393 41.9353 11.9345 41.9261C6.56306 41.6028 2.02012 37.991 0.512012 32.8551C0.251351 31.9868 0.158258 31.0908 0 30.204ZM2.82072 20.3663C2.82072 23.7287 2.81141 26.4722 2.82072 29.2249C2.85796 34.8873 7.14955 39.1457 12.8468 39.1642C14.6249 39.1734 16.403 39.1642 18.1811 39.1642C18.991 39.1642 19.7823 39.0995 20.5736 38.9055C25.1351 37.7878 28.1514 33.9359 28.1607 29.1787C28.1793 23.7287 28.17 18.2787 28.1607 12.8195C28.1607 12.2098 28.1141 11.5909 28.021 10.9813C27.4066 6.88918 23.8411 3.42521 19.7264 2.90792C18.1066 2.7047 16.4868 2.82478 14.8577 2.81555C13.6381 2.80631 12.4186 2.75089 11.1991 2.90792C6.83303 3.47139 3.09069 7.39723 2.86727 11.7572C2.71832 14.8332 2.86727 17.9092 2.82072 20.3663Z" fill="white"/>
<path d="M16.8973 10.4918C16.8973 11.5172 16.888 12.5425 16.9067 13.5771C16.916 13.8819 16.8508 14.0112 16.5064 14.002C15.8268 13.9743 15.1472 13.9835 14.4676 14.002C14.207 14.0112 14.0859 13.965 14.0859 13.6602C14.0952 11.5634 14.0952 9.45727 14.0859 7.36041C14.0859 7.07405 14.1883 7.00016 14.4583 7.00016C15.1379 7.01863 15.8175 7.02787 16.497 7.00016C16.8415 6.99092 16.8973 7.12024 16.8973 7.42507C16.888 8.44117 16.8973 9.4665 16.8973 10.4918Z" fill="white"/>
</svg>
